<svg preserveAspectRatio="xMidYMid meet" data-bbox="0.624 0.028 338.604 71.52" width="340" height="72" viewBox="0.624 0.028 338.604 71.52" xmlns="http://www.w3.org/2000/svg" data-type="color" role="presentation" aria-hidden="true" aria-label="">
    <g>
        <path opacity=".801" fill-rule="evenodd" clip-rule="evenodd" d="m.744 8.512.648-.6c.552.792 1.256 1.236 2.112 1.332V5.92c-.88-.184-1.512-.446-1.896-.786-.384-.34-.576-.822-.576-1.446a2.1 2.1 0 0 1 .318-1.134c.212-.34.506-.614.882-.822a3.163 3.163 0 0 1 1.284-.372V.028h.732v1.344c.488.064.936.226 1.344.486.408.26.768.61 1.08 1.05l-.648.6C5.552 2.78 4.96 2.344 4.248 2.2v3c.928.192 1.594.47 1.998.834.404.364.606.878.606 1.542 0 .44-.108.838-.324 1.194-.216.356-.52.648-.912.876-.392.228-.852.366-1.38.414v1.332h-.732V10.06c-1.136-.096-2.056-.612-2.76-1.548Zm1.164-4.836c0 .4.126.704.378.912.252.208.662.368 1.23.48V2.176c-.48.056-.868.22-1.164.492a1.314 1.314 0 0 0-.444 1.008Zm3.66 2.946c.272.236.408.554.408.954 0 .44-.156.814-.468 1.122-.312.308-.736.49-1.272.546v-3.18c.616.136 1.06.322 1.332.558Z" fill="#C0C2CE" data-color="1"></path>
        <path opacity=".801" d="M14.568 10h-1.032L12.18 5.26 10.836 10H9.792L8.04 4.096h.948l1.344 4.908 1.392-4.908h.936l1.392 4.956 1.38-4.956h.912L14.568 10Z" fill="#C0C2CE" data-color="1"></path>
        <path opacity=".801" d="M22.932 11.548h-.888a7.938 7.938 0 0 1-1.248-2.418 9.145 9.145 0 0 1-.42-2.778c0-.952.138-1.862.414-2.73a7.893 7.893 0 0 1 1.242-2.394h.888c-.56.848-.974 1.682-1.242 2.502a8.389 8.389 0 0 0-.402 2.622 8.8 8.8 0 0 0 .408 2.646 9.833 9.833 0 0 0 1.248 2.55Z" fill="#C0C2CE" data-color="1"></path>
        <path opacity=".801" fill-rule="evenodd" clip-rule="evenodd" d="M25.512 1.168H24.9a3.734 3.734 0 0 0-.612 1.068c-.16.416-.24.8-.24 1.152 0 .224.066.406.198.546a.67.67 0 0 0 .51.21.641.641 0 0 0 .498-.204.737.737 0 0 0 .186-.516.678.678 0 0 0-.174-.462.63.63 0 0 0-.426-.222c.016-.224.084-.478.204-.762.12-.284.276-.554.468-.81Zm1.716 0h-.612a3.734 3.734 0 0 0-.612 1.068c-.16.416-.24.8-.24 1.152 0 .224.066.406.198.546a.67.67 0 0 0 .51.21.641.641 0 0 0 .498-.204.737.737 0 0 0 .186-.516.678.678 0 0 0-.174-.462.63.63 0 0 0-.426-.222c.016-.224.084-.478.204-.762.12-.284.276-.554.468-.81Z" fill="#C0C2CE" data-color="1"></path>
        <path opacity=".801" fill-rule="evenodd" clip-rule="evenodd" d="M29.04 10h.804l.48-2.4h2.088l-.48 2.4h.804l.48-2.4h1.02l.144-.696h-1.02l.468-2.388h1.02l.144-.696h-1.02l.48-2.4h-.804l-.48 2.4H31.08l.48-2.4h-.804l-.48 2.4h-1.02l-.144.696h1.02l-.468 2.388h-1.02L28.5 7.6h1.02l-.48 2.4Zm3.516-3.096h-2.088l.468-2.388h2.088l-.468 2.388Z" fill="#C0C2CE" data-color="1"></path>
        <path opacity=".801" fill-rule="evenodd" clip-rule="evenodd" d="M37.164 9.952c.32.16.688.24 1.104.24.448 0 .852-.09 1.212-.27.36-.18.652-.422.876-.726V10h.876V6.28c0-.48-.104-.898-.312-1.254a2.134 2.134 0 0 0-.876-.828c-.376-.196-.816-.294-1.32-.294-.92 0-1.716.352-2.388 1.056l.6.588c.472-.568 1.048-.852 1.728-.852.52 0 .93.146 1.23.438.3.292.45.686.45 1.182v.048h-1.656c-.776 0-1.394.176-1.854.528-.46.352-.69.828-.69 1.428 0 .36.09.682.27.966.18.284.43.506.75.666Zm2.448-.882c-.344.236-.748.354-1.212.354-.392 0-.706-.104-.942-.312-.236-.208-.354-.484-.354-.828 0-.376.148-.666.444-.87.296-.204.712-.306 1.248-.306h1.548v1.02a1.918 1.918 0 0 1-.732.942Z" fill="#C0C2CE" data-color="1"></path>
        <path opacity=".801" fill-rule="evenodd" clip-rule="evenodd" d="M47.748 9.064V10h.912V1.36h-.924v3.78a2.278 2.278 0 0 0-.864-.9 2.415 2.415 0 0 0-1.26-.336c-.536 0-1.018.136-1.446.408a2.826 2.826 0 0 0-1.008 1.122c-.244.476-.366 1.014-.366 1.614 0 .608.124 1.148.372 1.62a2.88 2.88 0 0 0 1.014 1.116c.428.272.918.408 1.47.408.464 0 .88-.102 1.248-.306a2.19 2.19 0 0 0 .852-.822Zm-3.726-.804a2.727 2.727 0 0 1-.258-1.212c0-.456.084-.86.252-1.212a2.01 2.01 0 0 1 .702-.828c.3-.2.642-.3 1.026-.3.392 0 .738.106 1.038.318.3.212.534.506.702.882.168.376.252.812.252 1.308v.756a2.073 2.073 0 0 1-.744 1.026c-.352.26-.756.39-1.212.39-.392 0-.74-.1-1.044-.3a2.037 2.037 0 0 1-.714-.828Z" fill="#C0C2CE" data-color="1"></path>
        <path opacity=".801" fill-rule="evenodd" clip-rule="evenodd" d="M55.284 9.064V10h.912V1.36h-.924v3.78a2.278 2.278 0 0 0-.864-.9 2.415 2.415 0 0 0-1.26-.336c-.536 0-1.018.136-1.446.408a2.826 2.826 0 0 0-1.008 1.122c-.244.476-.366 1.014-.366 1.614 0 .608.124 1.148.372 1.62a2.88 2.88 0 0 0 1.014 1.116c.428.272.918.408 1.47.408.464 0 .88-.102 1.248-.306a2.19 2.19 0 0 0 .852-.822Zm-3.726-.804a2.727 2.727 0 0 1-.258-1.212c0-.456.084-.86.252-1.212a2.01 2.01 0 0 1 .702-.828c.3-.2.642-.3 1.026-.3.392 0 .738.106 1.038.318.3.212.534.506.702.882.168.376.252.812.252 1.308v.756a2.073 2.073 0 0 1-.744 1.026c-.352.26-.756.39-1.212.39-.392 0-.74-.1-1.044-.3a2.037 2.037 0 0 1-.714-.828Z" fill="#C0C2CE" data-color="1"></path>
        <path opacity=".801" d="M61.296 10h-.96V2.272h-2.664V1.42h6.288v.852h-2.664V10Z" fill="#C0C2CE" data-color="1"></path>
        <path opacity=".801" fill-rule="evenodd" clip-rule="evenodd" d="M66.492 9.784c.448.272.956.408 1.524.408a2.9 2.9 0 0 0 1.536-.408 2.85 2.85 0 0 0 1.05-1.116c.252-.472.378-1.012.378-1.62 0-.608-.126-1.148-.378-1.62a2.85 2.85 0 0 0-1.05-1.116 2.9 2.9 0 0 0-1.536-.408c-.568 0-1.076.136-1.524.408a2.85 2.85 0 0 0-1.05 1.116c-.252.472-.378 1.012-.378 1.62 0 .608.126 1.148.378 1.62a2.85 2.85 0 0 0 1.05 1.116Zm2.568-.696c-.296.2-.644.3-1.044.3a1.8 1.8 0 0 1-1.032-.3 2.028 2.028 0 0 1-.696-.828 2.782 2.782 0 0 1-.252-1.212c0-.464.084-.87.252-1.218.168-.348.4-.622.696-.822.296-.2.64-.3 1.032-.3.4 0 .748.1 1.044.3.296.2.528.474.696.822.168.348.252.754.252 1.218 0 .456-.084.86-.252 1.212-.168.352-.4.628-.696.828Z" fill="#C0C2CE" data-color="1"></path>
        <path opacity=".801" d="m79.008 7.9.672.66a3.614 3.614 0 0 1-1.38 1.194 3.932 3.932 0 0 1-1.8.438 3.89 3.89 0 0 1-1.62-.336 3.94 3.94 0 0 1-1.302-.948 4.376 4.376 0 0 1-.864-1.428 4.984 4.984 0 0 1-.306-1.764c0-.64.104-1.232.312-1.776.208-.544.496-1.02.864-1.428a3.845 3.845 0 0 1 1.308-.948 3.972 3.972 0 0 1 1.632-.336c.656 0 1.254.14 1.794.42.54.28.994.684 1.362 1.212l-.672.66c-.592-.952-1.428-1.428-2.508-1.428-.592 0-1.122.156-1.59.468-.468.312-.836.74-1.104 1.284-.268.544-.402 1.168-.402 1.872 0 .688.134 1.306.402 1.854s.636.978 1.104 1.29c.468.312.998.468 1.59.468.528 0 1.006-.122 1.434-.366A3.03 3.03 0 0 0 79.008 7.9Z" fill="#C0C2CE" data-color="1"></path>
        <path opacity=".801" fill-rule="evenodd" clip-rule="evenodd" d="M81.792 9.952c.32.16.688.24 1.104.24.448 0 .852-.09 1.212-.27.36-.18.652-.422.876-.726V10h.876V6.28c0-.48-.104-.898-.312-1.254a2.134 2.134 0 0 0-.876-.828c-.376-.196-.816-.294-1.32-.294-.92 0-1.716.352-2.388 1.056l.6.588c.472-.568 1.048-.852 1.728-.852.52 0 .93.146 1.23.438.3.292.45.686.45 1.182v.048h-1.656c-.776 0-1.394.176-1.854.528-.46.352-.69.828-.69 1.428 0 .36.09.682.27.966.18.284.43.506.75.666Zm2.448-.882c-.344.236-.748.354-1.212.354-.392 0-.706-.104-.942-.312-.236-.208-.354-.484-.354-.828 0-.376.148-.666.444-.87.296-.204.712-.306 1.248-.306h1.548v1.02a1.918 1.918 0 0 1-.732.942Z" fill="#C0C2CE" data-color="1"></path>
        <path opacity=".801" d="M90.996 4v.888h-.204c-.368 0-.71.094-1.026.282-.316.188-.57.476-.762.864-.192.388-.288.886-.288 1.494V10h-.924V4.096h.912v1.32c.2-.512.496-.876.888-1.092A2.481 2.481 0 0 1 90.804 4h.192Z" fill="#C0C2CE" data-color="1"></path>
        <path opacity=".801" d="M95.376 10h-1.32c-.416 0-.732-.114-.948-.342-.216-.228-.324-.554-.324-.978V4.888h-1.128v-.792h1.128V2.368h.924v1.728h1.584v.792h-1.584v3.708c0 .408.192.612.576.612h1.092V10Z" fill="#C0C2CE" data-color="1"></path>
        <path opacity=".801" fill-rule="evenodd" clip-rule="evenodd" d="M97.104 10V1.42h3.156c.512 0 .96.094 1.344.282.384.188.684.452.9.792.216.34.324.738.324 1.194 0 .392-.094.74-.282 1.044a2.097 2.097 0 0 1-.774.732c.44.176.786.448 1.038.816.252.368.378.804.378 1.308 0 .48-.112.902-.336 1.266a2.25 2.25 0 0 1-.942.846c-.404.2-.874.3-1.41.3h-3.396Zm3.144-7.74h-2.184v2.904h2.184c.504 0 .898-.13 1.182-.39.284-.26.426-.618.426-1.074 0-.44-.144-.79-.432-1.05-.288-.26-.68-.39-1.176-.39Zm.252 6.9h-2.436V6.004h2.436c.528 0 .944.14 1.248.42.304.28.456.664.456 1.152 0 .488-.152.874-.456 1.158-.304.284-.72.426-1.248.426Z" fill="#C0C2CE" data-color="1"></path>
        <path opacity=".801" d="M109.98 10h-.912v-.936a2.16 2.16 0 0 1-.81.822 2.317 2.317 0 0 1-1.194.306c-.664 0-1.196-.212-1.596-.636-.4-.424-.6-1.036-.6-1.836V4.096h.924v3.528c0 .576.128 1.014.384 1.314.256.3.616.45 1.08.45.408 0 .776-.126 1.104-.378.328-.252.56-.59.696-1.014v-3.9h.924V10Z" fill="#C0C2CE" data-color="1"></path>
        <path opacity=".801" d="M115.092 10h-1.32c-.416 0-.732-.114-.948-.342-.216-.228-.324-.554-.324-.978V4.888h-1.128v-.792h1.128V2.368h.924v1.728h1.584v.792h-1.584v3.708c0 .408.192.612.576.612h1.092V10Z" fill="#C0C2CE" data-color="1"></path>
        <path opacity=".801" d="M119.64 10h-1.32c-.416 0-.732-.114-.948-.342-.216-.228-.324-.554-.324-.978V4.888h-1.128v-.792h1.128V2.368h.924v1.728h1.584v.792h-1.584v3.708c0 .408.192.612.576.612h1.092V10Z" fill="#C0C2CE" data-color="1"></path>
        <path opacity=".801" fill-rule="evenodd" clip-rule="evenodd" d="M122.172 9.784c.448.272.956.408 1.524.408a2.9 2.9 0 0 0 1.536-.408 2.85 2.85 0 0 0 1.05-1.116c.252-.472.378-1.012.378-1.62 0-.608-.126-1.148-.378-1.62a2.85 2.85 0 0 0-1.05-1.116 2.9 2.9 0 0 0-1.536-.408c-.568 0-1.076.136-1.524.408a2.85 2.85 0 0 0-1.05 1.116c-.252.472-.378 1.012-.378 1.62 0 .608.126 1.148.378 1.62a2.85 2.85 0 0 0 1.05 1.116Zm2.568-.696c-.296.2-.644.3-1.044.3a1.8 1.8 0 0 1-1.032-.3 2.028 2.028 0 0 1-.696-.828 2.782 2.782 0 0 1-.252-1.212c0-.464.084-.87.252-1.218.168-.348.4-.622.696-.822.296-.2.64-.3 1.032-.3.4 0 .748.1 1.044.3.296.2.528.474.696.822.168.348.252.754.252 1.218 0 .456-.084.86-.252 1.212-.168.352-.4.628-.696.828Z" fill="#C0C2CE" data-color="1"></path>
        <path opacity=".801" d="M133.464 10h-.924V6.604c0-.624-.13-1.094-.39-1.41-.26-.316-.61-.474-1.05-.474-.32 0-.62.09-.9.27-.28.18-.508.464-.684.852-.176.388-.264.89-.264 1.506V10h-.924V4.096h.912v1.212c.192-.512.476-.874.852-1.086a2.384 2.384 0 0 1 1.188-.318c.68 0 1.214.222 1.602.666.388.444.582 1.086.582 1.926V10Z" fill="#C0C2CE" data-color="1"></path>
        <path opacity=".801" fill-rule="evenodd" clip-rule="evenodd" d="M135.024 4.096h.612c.248-.296.452-.654.612-1.074.16-.42.24-.802.24-1.146 0-.232-.066-.416-.198-.552a.68.68 0 0 0-.51-.204c-.2 0-.364.068-.492.204a.723.723 0 0 0-.192.516c0 .176.058.33.174.462a.63.63 0 0 0 .426.222 2.442 2.442 0 0 1-.204.762c-.12.284-.276.554-.468.81Zm1.716 0h.612c.248-.296.452-.654.612-1.074.16-.42.24-.802.24-1.146 0-.232-.066-.416-.198-.552a.68.68 0 0 0-.51-.204c-.2 0-.364.068-.492.204a.723.723 0 0 0-.192.516c0 .176.058.33.174.462a.63.63 0 0 0 .426.222 2.442 2.442 0 0 1-.204.762c-.12.284-.276.554-.468.81Z" fill="#C0C2CE" data-color="1"></path>
        <path opacity=".801" d="M139.32 11.548a9.833 9.833 0 0 0 1.248-2.55 8.8 8.8 0 0 0 .408-2.646c0-.928-.132-1.802-.396-2.622-.264-.82-.68-1.654-1.248-2.502h.888a7.893 7.893 0 0 1 1.242 2.394c.276.868.414 1.778.414 2.73 0 .968-.14 1.894-.42 2.778a7.938 7.938 0 0 1-1.248 2.418h-.888Z" fill="#C0C2CE" data-color="1"></path>
        <path opacity=".801" d="M144.204 10.144a.665.665 0 0 1-.498-.204.696.696 0 0 1-.198-.504c0-.2.066-.368.198-.504a.665.665 0 0 1 .498-.204c.2 0 .366.068.498.204a.696.696 0 0 1 .198.504c0 .2-.066.368-.198.504a.665.665 0 0 1-.498.204Z" fill="#C0C2CE" data-color="1"></path>
        <path opacity=".801" fill-rule="evenodd" clip-rule="evenodd" d="M147.732 9.784c.448.272.956.408 1.524.408a2.9 2.9 0 0 0 1.536-.408 2.85 2.85 0 0 0 1.05-1.116c.252-.472.378-1.012.378-1.62 0-.608-.126-1.148-.378-1.62a2.85 2.85 0 0 0-1.05-1.116 2.9 2.9 0 0 0-1.536-.408c-.568 0-1.076.136-1.524.408a2.85 2.85 0 0 0-1.05 1.116c-.252.472-.378 1.012-.378 1.62 0 .608.126 1.148.378 1.62a2.85 2.85 0 0 0 1.05 1.116Zm2.568-.696c-.296.2-.644.3-1.044.3a1.8 1.8 0 0 1-1.032-.3 2.028 2.028 0 0 1-.696-.828 2.782 2.782 0 0 1-.252-1.212c0-.464.084-.87.252-1.218.168-.348.4-.622.696-.822.296-.2.64-.3 1.032-.3.4 0 .748.1 1.044.3.296.2.528.474.696.822.168.348.252.754.252 1.218 0 .456-.084.86-.252 1.212-.168.352-.4.628-.696.828Z" fill="#C0C2CE" data-color="1"></path>
        <path opacity=".801" d="M159.024 10h-.924V6.604c0-.624-.13-1.094-.39-1.41-.26-.316-.61-.474-1.05-.474-.32 0-.62.09-.9.27-.28.18-.508.464-.684.852-.176.388-.264.89-.264 1.506V10h-.924V4.096h.912v1.212c.192-.512.476-.874.852-1.086a2.384 2.384 0 0 1 1.188-.318c.68 0 1.214.222 1.602.666.388.444.582 1.086.582 1.926V10Z" fill="#C0C2CE" data-color="1"></path>
        <path opacity=".801" d="m167.316 7.9.672.66a3.614 3.614 0 0 1-1.38 1.194 3.932 3.932 0 0 1-1.8.438 3.89 3.89 0 0 1-1.62-.336 3.94 3.94 0 0 1-1.302-.948 4.376 4.376 0 0 1-.864-1.428 4.984 4.984 0 0 1-.306-1.764c0-.64.104-1.232.312-1.776.208-.544.496-1.02.864-1.428a3.845 3.845 0 0 1 1.308-.948 3.972 3.972 0 0 1 1.632-.336c.656 0 1.254.14 1.794.42.54.28.994.684 1.362 1.212l-.672.66c-.592-.952-1.428-1.428-2.508-1.428-.592 0-1.122.156-1.59.468-.468.312-.836.74-1.104 1.284-.268.544-.402 1.168-.402 1.872 0 .688.134 1.306.402 1.854s.636.978 1.104 1.29c.468.312.998.468 1.59.468.528 0 1.006-.122 1.434-.366a3.03 3.03 0 0 0 1.074-1.062Z" fill="#C0C2CE" data-color="1"></path>
        <path opacity=".801" d="M170.508 10h-.924V1.36h.924V10Z" fill="#C0C2CE" data-color="1"></path>
        <path opacity=".801" fill-rule="evenodd" clip-rule="evenodd" d="M173.466 2.338a.642.642 0 0 0 .186-.474.642.642 0 0 0-.186-.474.627.627 0 0 0-.462-.186.627.627 0 0 0-.462.186.642.642 0 0 0-.186.474c0 .192.062.35.186.474a.627.627 0 0 0 .462.186.627.627 0 0 0 .462-.186ZM172.548 10h.924V4.096h-.924V10Z" fill="#C0C2CE" data-color="1"></path>
        <path opacity=".801" d="m179.796 8.428.648.612c-.568.768-1.352 1.152-2.352 1.152-.576 0-1.086-.134-1.53-.402a2.82 2.82 0 0 1-1.044-1.11c-.252-.472-.378-1.016-.378-1.632 0-.616.128-1.16.384-1.632a2.85 2.85 0 0 1 1.056-1.11c.448-.268.96-.402 1.536-.402 1 0 1.78.384 2.34 1.152l-.66.612c-.168-.304-.4-.54-.696-.708a2.006 2.006 0 0 0-1.008-.252c-.584 0-1.06.212-1.428.636-.368.424-.552.992-.552 1.704 0 .704.186 1.27.558 1.698.372.428.858.642 1.458.642.72 0 1.276-.32 1.668-.96Z" fill="#C0C2CE" data-color="1"></path>
        <path opacity=".801" d="M182.868 10h-.924V1.36h.924v5.412l2.844-2.676h1.236l-3.096 2.844 3.42 3.06h-1.332l-3.072-2.784V10Z" fill="#C0C2CE" data-color="1"></path>
        <path opacity=".801" d="M190.824 11.548h-.888a7.938 7.938 0 0 1-1.248-2.418 9.145 9.145 0 0 1-.42-2.778c0-.952.138-1.862.414-2.73a7.893 7.893 0 0 1 1.242-2.394h.888c-.56.848-.974 1.682-1.242 2.502a8.389 8.389 0 0 0-.402 2.622 8.8 8.8 0 0 0 .408 2.646 9.833 9.833 0 0 0 1.248 2.55Z" fill="#C0C2CE" data-color="1"></path>
        <path opacity=".801" fill-rule="evenodd" clip-rule="evenodd" d="M192.828 9.952c.32.16.688.24 1.104.24.448 0 .852-.09 1.212-.27.36-.18.652-.422.876-.726V10h.876V6.28c0-.48-.104-.898-.312-1.254a2.134 2.134 0 0 0-.876-.828c-.376-.196-.816-.294-1.32-.294-.92 0-1.716.352-2.388 1.056l.6.588c.472-.568 1.048-.852 1.728-.852.52 0 .93.146 1.23.438.3.292.45.686.45 1.182v.048h-1.656c-.776 0-1.394.176-1.854.528-.46.352-.69.828-.69 1.428 0 .36.09.682.27.966.18.284.43.506.75.666Zm2.448-.882c-.344.236-.748.354-1.212.354-.392 0-.706-.104-.942-.312-.236-.208-.354-.484-.354-.828 0-.376.148-.666.444-.87.296-.204.712-.306 1.248-.306h1.548v1.02a1.918 1.918 0 0 1-.732.942Z" fill="#C0C2CE" data-color="1"></path>
        <path opacity=".801" d="m198.132 9.088.6-.636c.256.296.55.53.882.702.332.172.706.258 1.122.258.432 0 .782-.1 1.05-.3a.93.93 0 0 0 .402-.78.727.727 0 0 0-.342-.63c-.228-.156-.618-.274-1.17-.354-.84-.136-1.43-.332-1.77-.588-.34-.256-.51-.612-.51-1.068 0-.544.212-.978.636-1.302.424-.324.972-.486 1.644-.486.496 0 .94.096 1.332.288.392.192.74.464 1.044.816l-.6.636a2.67 2.67 0 0 0-.774-.702 1.937 1.937 0 0 0-1.002-.258c-.392 0-.712.09-.96.27-.248.18-.372.41-.372.69 0 .224.104.402.312.534.208.132.576.238 1.104.318.872.128 1.488.334 1.848.618.36.284.54.686.54 1.206 0 .368-.104.694-.312.978a2.022 2.022 0 0 1-.858.66 3.126 3.126 0 0 1-1.242.234c-.576 0-1.072-.098-1.488-.294a3.729 3.729 0 0 1-1.116-.81Z" fill="#C0C2CE" data-color="1"></path>
        <path opacity=".801" d="M208.848 4.096h.936l-2.808 6.948c-.16.4-.362.714-.606.942-.244.228-.626.342-1.146.342h-.696v-.792h.696c.272 0 .484-.064.636-.192.152-.128.272-.316.36-.564l.276-.756-2.4-5.928h.984l1.884 4.944 1.884-4.944Z" fill="#C0C2CE" data-color="1"></path>
        <path opacity=".801" d="M216.336 10h-.924V6.604c0-.624-.13-1.094-.39-1.41-.26-.316-.61-.474-1.05-.474-.32 0-.62.09-.9.27-.28.18-.508.464-.684.852-.176.388-.264.89-.264 1.506V10h-.924V4.096h.912v1.212c.192-.512.476-.874.852-1.086a2.384 2.384 0 0 1 1.188-.318c.68 0 1.214.222 1.602.666.388.444.582 1.086.582 1.926V10Z" fill="#C0C2CE" data-color="1"></path>
        <path opacity=".801" d="m222.552 8.428.648.612c-.568.768-1.352 1.152-2.352 1.152-.576 0-1.086-.134-1.53-.402a2.82 2.82 0 0 1-1.044-1.11c-.252-.472-.378-1.016-.378-1.632 0-.616.128-1.16.384-1.632a2.85 2.85 0 0 1 1.056-1.11c.448-.268.96-.402 1.536-.402 1 0 1.78.384 2.34 1.152l-.66.612c-.168-.304-.4-.54-.696-.708a2.006 2.006 0 0 0-1.008-.252c-.584 0-1.06.212-1.428.636-.368.424-.552.992-.552 1.704 0 .704.186 1.27.558 1.698.372.428.858.642 1.458.642.72 0 1.276-.32 1.668-.96Z" fill="#C0C2CE" data-color="1"></path>
        <path opacity=".801" d="M229.812 11.548h-.888a7.938 7.938 0 0 1-1.248-2.418 9.145 9.145 0 0 1-.42-2.778c0-.952.138-1.862.414-2.73a7.893 7.893 0 0 1 1.242-2.394h.888c-.56.848-.974 1.682-1.242 2.502a8.389 8.389 0 0 0-.402 2.622 8.8 8.8 0 0 0 .408 2.646 9.833 9.833 0 0 0 1.248 2.55Z" fill="#C0C2CE" data-color="1"></path>
        <path opacity=".801" d="M230.748 11.548a9.833 9.833 0 0 0 1.248-2.55 8.8 8.8 0 0 0 .408-2.646c0-.928-.132-1.802-.396-2.622-.264-.82-.68-1.654-1.248-2.502h.888a7.893 7.893 0 0 1 1.242 2.394c.276.868.414 1.778.414 2.73 0 .968-.14 1.894-.42 2.778a7.938 7.938 0 0 1-1.248 2.418h-.888Z" fill="#C0C2CE" data-color="1"></path>
        <path opacity=".801" fill-rule="evenodd" clip-rule="evenodd" d="M238.548 4.876h4.248v-.78h-4.248v.78Zm0 2.46h4.248v-.78h-4.248v.78Z" fill="#C0C2CE" data-color="1"></path>
        <path opacity=".801" d="m250.596 6.244-4.668 2.136v-.852l4.056-1.8-4.056-1.8V3.04l4.668 2.148v1.056Z" fill="#C0C2CE" data-color="1"></path>
        <path opacity=".801" d="M258.768 10.78v.768h-.912c-.912 0-1.368-.48-1.368-1.44V7.48c0-.488-.228-.732-.684-.732h-.432V5.98h.432c.456 0 .684-.244.684-.732v-2.58c0-.96.456-1.44 1.368-1.44h.912v.768h-.672c-.456 0-.684.244-.684.732v2.328c0 .672-.22 1.108-.66 1.308.44.2.66.636.66 1.308v2.376c0 .488.224.732.672.732h.684Z" fill="#C0C2CE" data-color="1"></path>
        <path opacity=".801" d="M7.344 30H6.42v-8.64h.924V30Z" fill="#C0C2CE" data-color="1"></path>
        <path opacity=".801" fill-rule="evenodd" clip-rule="evenodd" d="m14.496 28.908-.624-.6c-.24.368-.508.64-.804.816a1.912 1.912 0 0 1-.996.264c-.584 0-1.062-.188-1.434-.564-.372-.376-.59-.86-.654-1.452h4.644v-.36c0-.608-.116-1.146-.348-1.614a2.691 2.691 0 0 0-.966-1.098 2.578 2.578 0 0 0-1.422-.396 2.72 2.72 0 0 0-1.47.408c-.436.272-.78.646-1.032 1.122a3.396 3.396 0 0 0-.378 1.614c0 .6.126 1.138.378 1.614.252.476.604.85 1.056 1.122.452.272.974.408 1.566.408.504 0 .966-.106 1.386-.318.42-.212.786-.534 1.098-.966Zm-3.87-3.672c.348-.352.77-.528 1.266-.528s.902.172 1.218.516c.316.344.502.808.558 1.392H9.996c.072-.568.282-1.028.63-1.38Z" fill="#C0C2CE" data-color="1"></path>
        <path opacity=".801" d="M19.368 30h-1.32c-.416 0-.732-.114-.948-.342-.216-.228-.324-.554-.324-.978v-3.792h-1.128v-.792h1.128v-1.728h.924v1.728h1.584v.792H17.7v3.708c0 .408.192.612.576.612h1.092V30Z" fill="#C0C2CE" data-color="1"></path>
        <path opacity=".801" d="m27.828 28.428.648.612c-.568.768-1.352 1.152-2.352 1.152-.576 0-1.086-.134-1.53-.402a2.82 2.82 0 0 1-1.044-1.11c-.252-.472-.378-1.016-.378-1.632 0-.616.128-1.16.384-1.632a2.85 2.85 0 0 1 1.056-1.11c.448-.268.96-.402 1.536-.402 1 0 1.78.384 2.34 1.152l-.66.612c-.168-.304-.4-.54-.696-.708a2.006 2.006 0 0 0-1.008-.252c-.584 0-1.06.212-1.428.636-.368.424-.552.992-.552 1.704 0 .704.186 1.27.558 1.698.372.428.858.642 1.458.642.72 0 1.276-.32 1.668-.96Z" fill="#C0C2CE" data-color="1"></path>
        <path opacity=".801" d="M34.98 30h-.912v-.936a2.16 2.16 0 0 1-.81.822 2.317 2.317 0 0 1-1.194.306c-.664 0-1.196-.212-1.596-.636-.4-.424-.6-1.036-.6-1.836v-3.624h.924v3.528c0 .576.128 1.014.384 1.314.256.3.616.45 1.08.45.408 0 .776-.126 1.104-.378.328-.252.56-.59.696-1.014v-3.9h.924V30Z" fill="#C0C2CE" data-color="1"></path>
        <path opacity=".801" d="M40.224 24v.888h-.204c-.368 0-.71.094-1.026.282-.316.188-.57.476-.762.864-.192.388-.288.886-.288 1.494V30h-.924v-5.904h.912v1.32c.2-.512.496-.876.888-1.092A2.481 2.481 0 0 1 40.032 24h.192Z" fill="#C0C2CE" data-color="1"></path>
        <path opacity=".801" d="M44.736 24v.888h-.204c-.368 0-.71.094-1.026.282-.316.188-.57.476-.762.864-.192.388-.288.886-.288 1.494V30h-.924v-5.904h.912v1.32c.2-.512.496-.876.888-1.092A2.481 2.481 0 0 1 44.544 24h.192Z" fill="#C0C2CE" data-color="1"></path>
        <path opacity=".801" fill-rule="evenodd" clip-rule="evenodd" d="m51.156 28.908-.624-.6c-.24.368-.508.64-.804.816a1.912 1.912 0 0 1-.996.264c-.584 0-1.062-.188-1.434-.564-.372-.376-.59-.86-.654-1.452h4.644v-.36c0-.608-.116-1.146-.348-1.614a2.691 2.691 0 0 0-.966-1.098 2.578 2.578 0 0 0-1.422-.396 2.72 2.72 0 0 0-1.47.408c-.436.272-.78.646-1.032 1.122a3.396 3.396 0 0 0-.378 1.614c0 .6.126 1.138.378 1.614.252.476.604.85 1.056 1.122.452.272.974.408 1.566.408.504 0 .966-.106 1.386-.318.42-.212.786-.534 1.098-.966Zm-3.87-3.672c.348-.352.77-.528 1.266-.528s.902.172 1.218.516c.316.344.502.808.558 1.392h-3.672c.072-.568.282-1.028.63-1.38Z" fill="#C0C2CE" data-color="1"></path>
        <path opacity=".801" d="M58.092 30h-.924v-3.396c0-.624-.13-1.094-.39-1.41-.26-.316-.61-.474-1.05-.474-.32 0-.62.09-.9.27-.28.18-.508.464-.684.852-.176.388-.264.89-.264 1.506V30h-.924v-5.904h.912v1.212c.192-.512.476-.874.852-1.086a2.384 2.384 0 0 1 1.188-.318c.68 0 1.214.222 1.602.666.388.444.582 1.086.582 1.926V30Z" fill="#C0C2CE" data-color="1"></path>
        <path opacity=".801" d="M63.096 30h-1.32c-.416 0-.732-.114-.948-.342-.216-.228-.324-.554-.324-.978v-3.792h-1.128v-.792h1.128v-1.728h.924v1.728h1.584v.792h-1.584v3.708c0 .408.192.612.576.612h1.092V30Z" fill="#C0C2CE" data-color="1"></path>
        <path opacity=".801" fill-rule="evenodd" clip-rule="evenodd" d="M64.824 30h.96v-3.756h2.184c.536 0 1.004-.102 1.404-.306.4-.204.712-.486.936-.846.224-.36.336-.78.336-1.26 0-.488-.112-.912-.336-1.272a2.272 2.272 0 0 0-.936-.84c-.4-.2-.868-.3-1.404-.3h-3.144V30Zm.96-7.74h2.184c.528 0 .942.138 1.242.414.3.276.45.662.45 1.158 0 .488-.15.872-.45 1.152-.3.28-.714.42-1.242.42h-2.184V22.26Z" fill="#C0C2CE" data-color="1"></path>
        <path opacity=".801" d="M75.504 24v.888H75.3c-.368 0-.71.094-1.026.282-.316.188-.57.476-.762.864-.192.388-.288.886-.288 1.494V30H72.3v-5.904h.912v1.32c.2-.512.496-.876.888-1.092A2.481 2.481 0 0 1 75.312 24h.192Z" fill="#C0C2CE" data-color="1"></path>
        <path opacity=".801" fill-rule="evenodd" clip-rule="evenodd" d="M77.868 29.784c.448.272.956.408 1.524.408a2.9 2.9 0 0 0 1.536-.408 2.85 2.85 0 0 0 1.05-1.116c.252-.472.378-1.012.378-1.62 0-.608-.126-1.148-.378-1.62a2.85 2.85 0 0 0-1.05-1.116 2.9 2.9 0 0 0-1.536-.408c-.568 0-1.076.136-1.524.408a2.85 2.85 0 0 0-1.05 1.116c-.252.472-.378 1.012-.378 1.62 0 .608.126 1.148.378 1.62a2.85 2.85 0 0 0 1.05 1.116Zm2.568-.696c-.296.2-.644.3-1.044.3a1.8 1.8 0 0 1-1.032-.3 2.028 2.028 0 0 1-.696-.828 2.782 2.782 0 0 1-.252-1.212c0-.464.084-.87.252-1.218.168-.348.4-.622.696-.822.296-.2.64-.3 1.032-.3.4 0 .748.1 1.044.3.296.2.528.474.696.822.168.348.252.754.252 1.218 0 .456-.084.86-.252 1.212-.168.352-.4.628-.696.828Z" fill="#C0C2CE" data-color="1"></path>
        <path opacity=".801" fill-rule="evenodd" clip-rule="evenodd" d="M88.608 29.064V30h.912v-8.64h-.924v3.78a2.278 2.278 0 0 0-.864-.9 2.415 2.415 0 0 0-1.26-.336c-.536 0-1.018.136-1.446.408a2.826 2.826 0 0 0-1.008 1.122c-.244.476-.366 1.014-.366 1.614 0 .608.124 1.148.372 1.62a2.88 2.88 0 0 0 1.014 1.116c.428.272.918.408 1.47.408.464 0 .88-.102 1.248-.306a2.19 2.19 0 0 0 .852-.822Zm-3.726-.804a2.727 2.727 0 0 1-.258-1.212c0-.456.084-.86.252-1.212a2.01 2.01 0 0 1 .702-.828c.3-.2.642-.3 1.026-.3.392 0 .738.106 1.038.318.3.212.534.506.702.882.168.376.252.812.252 1.308v.756a2.073 2.073 0 0 1-.744 1.026c-.352.26-.756.39-1.212.39-.392 0-.74-.1-1.044-.3a2.037 2.037 0 0 1-.714-.828Z" fill="#C0C2CE" data-color="1"></path>
        <path opacity=".801" d="M96.564 30h-.912v-.936a2.16 2.16 0 0 1-.81.822 2.317 2.317 0 0 1-1.194.306c-.664 0-1.196-.212-1.596-.636-.4-.424-.6-1.036-.6-1.836v-3.624h.924v3.528c0 .576.128 1.014.384 1.314.256.3.616.45 1.08.45.408 0 .776-.126 1.104-.378.328-.252.56-.59.696-1.014v-3.9h.924V30Z" fill="#C0C2CE" data-color="1"></path>
        <path opacity=".801" d="m102.888 28.428.648.612c-.568.768-1.352 1.152-2.352 1.152-.576 0-1.086-.134-1.53-.402a2.82 2.82 0 0 1-1.044-1.11c-.252-.472-.378-1.016-.378-1.632 0-.616.128-1.16.384-1.632a2.85 2.85 0 0 1 1.056-1.11c.448-.268.96-.402 1.536-.402 1 0 1.78.384 2.34 1.152l-.66.612c-.168-.304-.4-.54-.696-.708a2.006 2.006 0 0 0-1.008-.252c-.584 0-1.06.212-1.428.636-.368.424-.552.992-.552 1.704 0 .704.186 1.27.558 1.698.372.428.858.642 1.458.642.72 0 1.276-.32 1.668-.96Z" fill="#C0C2CE" data-color="1"></path>
        <path opacity=".801" d="M108.108 30h-1.32c-.416 0-.732-.114-.948-.342-.216-.228-.324-.554-.324-.978v-3.792h-1.128v-.792h1.128v-1.728h.924v1.728h1.584v.792h-1.584v3.708c0 .408.192.612.576.612h1.092V30Z" fill="#C0C2CE" data-color="1"></path>
        <path opacity=".801" fill-rule="evenodd" clip-rule="evenodd" d="M112.932 24.876h4.248v-.78h-4.248v.78Zm0 2.46h4.248v-.78h-4.248v.78Z" fill="#C0C2CE" data-color="1"></path>
        <path opacity=".801" fill-rule="evenodd" clip-rule="evenodd" d="M123.084 29.952c.32.16.688.24 1.104.24.448 0 .852-.09 1.212-.27.36-.18.652-.422.876-.726V30h.876v-3.72c0-.48-.104-.898-.312-1.254a2.134 2.134 0 0 0-.876-.828c-.376-.196-.816-.294-1.32-.294-.92 0-1.716.352-2.388 1.056l.6.588c.472-.568 1.048-.852 1.728-.852.52 0 .93.146 1.23.438.3.292.45.686.45 1.182v.048h-1.656c-.776 0-1.394.176-1.854.528-.46.352-.69.828-.69 1.428 0 .36.09.682.27.966.18.284.43.506.75.666Zm2.448-.882c-.344.236-.748.354-1.212.354-.392 0-.706-.104-.942-.312-.236-.208-.354-.484-.354-.828 0-.376.148-.666.444-.87.296-.204.712-.306 1.248-.306h1.548v1.02a1.918 1.918 0 0 1-.732.942Z" fill="#C0C2CE" data-color="1"></path>
        <path opacity=".801" d="M135.048 30h-1.032l-1.356-4.74-1.344 4.74h-1.044l-1.752-5.904h.948l1.344 4.908 1.392-4.908h.936l1.392 4.956 1.38-4.956h.912L135.048 30Z" fill="#C0C2CE" data-color="1"></path>
        <path opacity=".801" fill-rule="evenodd" clip-rule="evenodd" d="M138.816 29.952c.32.16.688.24 1.104.24.448 0 .852-.09 1.212-.27.36-.18.652-.422.876-.726V30h.876v-3.72c0-.48-.104-.898-.312-1.254a2.134 2.134 0 0 0-.876-.828c-.376-.196-.816-.294-1.32-.294-.92 0-1.716.352-2.388 1.056l.6.588c.472-.568 1.048-.852 1.728-.852.52 0 .93.146 1.23.438.3.292.45.686.45 1.182v.048h-1.656c-.776 0-1.394.176-1.854.528-.46.352-.69.828-.69 1.428 0 .36.09.682.27.966.18.284.43.506.75.666Zm2.448-.882c-.344.236-.748.354-1.212.354-.392 0-.706-.104-.942-.312-.236-.208-.354-.484-.354-.828 0-.376.148-.666.444-.87.296-.204.712-.306 1.248-.306h1.548v1.02a1.918 1.918 0 0 1-.732.942Z" fill="#C0C2CE" data-color="1"></path>
        <path opacity=".801" fill-rule="evenodd" clip-rule="evenodd" d="M145.734 22.338a.642.642 0 0 0 .186-.474.642.642 0 0 0-.186-.474.627.627 0 0 0-.462-.186.627.627 0 0 0-.462.186.642.642 0 0 0-.186.474c0 .192.062.35.186.474a.627.627 0 0 0 .462.186.627.627 0 0 0 .462-.186ZM144.816 30h.924v-5.904h-.924V30Z" fill="#C0C2CE" data-color="1"></path>
        <path opacity=".801" d="M150.852 30h-1.32c-.416 0-.732-.114-.948-.342-.216-.228-.324-.554-.324-.978v-3.792h-1.128v-.792h1.128v-1.728h.924v1.728h1.584v.792h-1.584v3.708c0 .408.192.612.576.612h1.092V30Z" fill="#C0C2CE" data-color="1"></path>
        <path opacity=".801" fill-rule="evenodd" clip-rule="evenodd" d="m154.752 28.512.648-.6c.552.792 1.256 1.236 2.112 1.332V25.92c-.88-.184-1.512-.446-1.896-.786-.384-.34-.576-.822-.576-1.446a2.1 2.1 0 0 1 .318-1.134c.212-.34.506-.614.882-.822a3.163 3.163 0 0 1 1.284-.372v-1.332h.732v1.344c.488.064.936.226 1.344.486.408.26.768.61 1.08 1.05l-.648.6c-.472-.728-1.064-1.164-1.776-1.308v3c.928.192 1.594.47 1.998.834.404.364.606.878.606 1.542 0 .44-.108.838-.324 1.194-.216.356-.52.648-.912.876-.392.228-.852.366-1.38.414v1.332h-.732V30.06c-1.136-.096-2.056-.612-2.76-1.548Zm1.164-4.836c0 .4.126.704.378.912.252.208.662.368 1.23.48v-2.892c-.48.056-.868.22-1.164.492a1.314 1.314 0 0 0-.444 1.008Zm3.66 2.946c.272.236.408.554.408.954 0 .44-.156.814-.468 1.122-.312.308-.736.49-1.272.546v-3.18c.616.136 1.06.322 1.332.558Z" fill="#C0C2CE" data-color="1"></path>
        <path opacity=".801" d="M168.576 30h-1.032l-1.356-4.74-1.344 4.74H163.8l-1.752-5.904h.948l1.344 4.908 1.392-4.908h.936l1.392 4.956 1.38-4.956h.912L168.576 30Z" fill="#C0C2CE" data-color="1"></path>
        <path opacity=".801" d="M174.24 31.548h-.888a7.937 7.937 0 0 1-1.248-2.418 9.145 9.145 0 0 1-.42-2.778c0-.952.138-1.862.414-2.73a7.893 7.893 0 0 1 1.242-2.394h.888c-.56.848-.974 1.682-1.242 2.502a8.389 8.389 0 0 0-.402 2.622 8.8 8.8 0 0 0 .408 2.646 9.833 9.833 0 0 0 1.248 2.55Z" fill="#C0C2CE" data-color="1"></path>
        <path opacity=".801" d="M176.208 21.168h.612a3.835 3.835 0 0 0-.468.81c-.12.284-.188.538-.204.762a.63.63 0 0 1 .426.222.678.678 0 0 1 .174.462c0 .208-.062.38-.186.516a.641.641 0 0 1-.498.204.67.67 0 0 1-.51-.21.764.764 0 0 1-.198-.546c0-.352.08-.736.24-1.152.16-.416.364-.772.612-1.068Z" fill="#C0C2CE" data-color="1"></path>
        <path opacity=".801" fill-rule="evenodd" clip-rule="evenodd" d="M178.632 30h.804l.48-2.4h2.088l-.48 2.4h.804l.48-2.4h1.02l.144-.696h-1.02l.468-2.388h1.02l.144-.696h-1.02l.48-2.4h-.804l-.48 2.4h-2.088l.48-2.4h-.804l-.48 2.4h-1.02l-.144.696h1.02l-.468 2.388h-1.02l-.144.696h1.02l-.48 2.4Zm3.516-3.096h-2.088l.468-2.388h2.088l-.468 2.388Z" fill="#C0C2CE" data-color="1"></path>
        <path opacity=".801" fill-rule="evenodd" clip-rule="evenodd" d="M186.24 32.328h.924V29.1c.2.336.48.602.84.798.36.196.776.294 1.248.294.552 0 1.042-.136 1.47-.408a2.88 2.88 0 0 0 1.014-1.116c.248-.472.372-1.012.372-1.62 0-.6-.12-1.138-.36-1.614a2.831 2.831 0 0 0-.984-1.122 2.572 2.572 0 0 0-1.44-.408c-.472 0-.902.118-1.29.354s-.682.55-.882.942v-1.104h-.912v8.232Zm.924-4.356v-.756c0-.496.088-.932.264-1.308.176-.376.416-.67.72-.882a1.78 1.78 0 0 1 1.044-.318c.384 0 .722.1 1.014.3.292.2.52.476.684.828.164.352.246.756.246 1.212 0 .456-.086.86-.258 1.212a2.054 2.054 0 0 1-.708.828c-.3.2-.65.3-1.05.3-.456 0-.86-.13-1.212-.39s-.6-.602-.744-1.026Z" fill="#C0C2CE" data-color="1"></path>
        <path opacity=".801" d="M196.98 24v.888h-.204c-.368 0-.71.094-1.026.282-.316.188-.57.476-.762.864-.192.388-.288.886-.288 1.494V30h-.924v-5.904h.912v1.32c.2-.512.496-.876.888-1.092a2.481 2.481 0 0 1 1.212-.324h.192Z" fill="#C0C2CE" data-color="1"></path>
        <path opacity=".801" fill-rule="evenodd" clip-rule="evenodd" d="M199.344 29.784c.448.272.956.408 1.524.408a2.9 2.9 0 0 0 1.536-.408 2.85 2.85 0 0 0 1.05-1.116c.252-.472.378-1.012.378-1.62 0-.608-.126-1.148-.378-1.62a2.85 2.85 0 0 0-1.05-1.116 2.9 2.9 0 0 0-1.536-.408c-.568 0-1.076.136-1.524.408a2.85 2.85 0 0 0-1.05 1.116c-.252.472-.378 1.012-.378 1.62 0 .608.126 1.148.378 1.62a2.85 2.85 0 0 0 1.05 1.116Zm2.568-.696c-.296.2-.644.3-1.044.3a1.8 1.8 0 0 1-1.032-.3 2.028 2.028 0 0 1-.696-.828 2.782 2.782 0 0 1-.252-1.212c0-.464.084-.87.252-1.218.168-.348.4-.622.696-.822.296-.2.64-.3 1.032-.3.4 0 .748.1 1.044.3.296.2.528.474.696.822.168.348.252.754.252 1.218 0 .456-.084.86-.252 1.212-.168.352-.4.628-.696.828Z" fill="#C0C2CE" data-color="1"></path>
        <path opacity=".801" fill-rule="evenodd" clip-rule="evenodd" d="M210.084 29.064V30h.912v-8.64h-.924v3.78a2.278 2.278 0 0 0-.864-.9 2.415 2.415 0 0 0-1.26-.336c-.536 0-1.018.136-1.446.408a2.826 2.826 0 0 0-1.008 1.122c-.244.476-.366 1.014-.366 1.614 0 .608.124 1.148.372 1.62a2.88 2.88 0 0 0 1.014 1.116c.428.272.918.408 1.47.408.464 0 .88-.102 1.248-.306a2.19 2.19 0 0 0 .852-.822Zm-3.726-.804a2.727 2.727 0 0 1-.258-1.212c0-.456.084-.86.252-1.212a2.01 2.01 0 0 1 .702-.828c.3-.2.642-.3 1.026-.3.392 0 .738.106 1.038.318.3.212.534.506.702.882.168.376.252.812.252 1.308v.756a2.073 2.073 0 0 1-.744 1.026c-.352.26-.756.39-1.212.39-.392 0-.74-.1-1.044-.3a2.037 2.037 0 0 1-.714-.828Z" fill="#C0C2CE" data-color="1"></path>
        <path opacity=".801" d="M218.04 30h-.912v-.936a2.16 2.16 0 0 1-.81.822 2.317 2.317 0 0 1-1.194.306c-.664 0-1.196-.212-1.596-.636-.4-.424-.6-1.036-.6-1.836v-3.624h.924v3.528c0 .576.128 1.014.384 1.314.256.3.616.45 1.08.45.408 0 .776-.126 1.104-.378.328-.252.56-.59.696-1.014v-3.9h.924V30Z" fill="#C0C2CE" data-color="1"></path>
        <path opacity=".801" d="m224.364 28.428.648.612c-.568.768-1.352 1.152-2.352 1.152-.576 0-1.086-.134-1.53-.402a2.82 2.82 0 0 1-1.044-1.11c-.252-.472-.378-1.016-.378-1.632 0-.616.128-1.16.384-1.632a2.85 2.85 0 0 1 1.056-1.11c.448-.268.96-.402 1.536-.402 1 0 1.78.384 2.34 1.152l-.66.612c-.168-.304-.4-.54-.696-.708a2.006 2.006 0 0 0-1.008-.252c-.584 0-1.06.212-1.428.636-.368.424-.552.992-.552 1.704 0 .704.186 1.27.558 1.698.372.428.858.642 1.458.642.72 0 1.276-.32 1.668-.96Z" fill="#C0C2CE" data-color="1"></path>
        <path opacity=".801" d="M229.584 30h-1.32c-.416 0-.732-.114-.948-.342-.216-.228-.324-.554-.324-.978v-3.792h-1.128v-.792h1.128v-1.728h.924v1.728h1.584v.792h-1.584v3.708c0 .408.192.612.576.612h1.092V30Z" fill="#C0C2CE" data-color="1"></path>
        <path opacity=".801" fill-rule="evenodd" clip-rule="evenodd" d="M231.312 30h.96v-3.756h2.184c.536 0 1.004-.102 1.404-.306.4-.204.712-.486.936-.846.224-.36.336-.78.336-1.26 0-.488-.112-.912-.336-1.272a2.272 2.272 0 0 0-.936-.84c-.4-.2-.868-.3-1.404-.3h-3.144V30Zm.96-7.74h2.184c.528 0 .942.138 1.242.414.3.276.45.662.45 1.158 0 .488-.15.872-.45 1.152-.3.28-.714.42-1.242.42h-2.184V22.26Z" fill="#C0C2CE" data-color="1"></path>
        <path opacity=".801" fill-rule="evenodd" clip-rule="evenodd" d="M239.304 29.952c.32.16.688.24 1.104.24.448 0 .852-.09 1.212-.27.36-.18.652-.422.876-.726V30h.876v-3.72c0-.48-.104-.898-.312-1.254a2.134 2.134 0 0 0-.876-.828c-.376-.196-.816-.294-1.32-.294-.92 0-1.716.352-2.388 1.056l.6.588c.472-.568 1.048-.852 1.728-.852.52 0 .93.146 1.23.438.3.292.45.686.45 1.182v.048h-1.656c-.776 0-1.394.176-1.854.528-.46.352-.69.828-.69 1.428 0 .36.09.682.27.966.18.284.43.506.75.666Zm2.448-.882c-.344.236-.748.354-1.212.354-.392 0-.706-.104-.942-.312-.236-.208-.354-.484-.354-.828 0-.376.148-.666.444-.87.296-.204.712-.306 1.248-.306h1.548v1.02a1.918 1.918 0 0 1-.732.942Z" fill="#C0C2CE" data-color="1"></path>
        <path opacity=".801" fill-rule="evenodd" clip-rule="evenodd" d="M250.422 31.044c.252-.456.378-.976.378-1.56v-5.388h-.912v1.056a2.134 2.134 0 0 0-.846-.918c-.372-.22-.802-.33-1.29-.33a2.61 2.61 0 0 0-1.44.408c-.424.272-.76.642-1.008 1.11a3.317 3.317 0 0 0-.372 1.578c0 .592.122 1.12.366 1.584.244.464.582.828 1.014 1.092.432.264.924.396 1.476.396.464 0 .878-.096 1.242-.288a2.13 2.13 0 0 0 .846-.78v.48c0 .44-.086.828-.258 1.164-.172.336-.41.598-.714.786a1.966 1.966 0 0 1-1.056.282c-.784 0-1.408-.316-1.872-.948l-.612.624c.296.36.658.638 1.086.834.428.196.898.294 1.41.294.568 0 1.074-.132 1.518-.396a2.821 2.821 0 0 0 1.044-1.08Zm-4.26-2.862a2.585 2.585 0 0 1-.258-1.182c0-.448.084-.844.252-1.188.168-.344.402-.614.702-.81.3-.196.642-.294 1.026-.294.392 0 .738.106 1.038.318.3.212.534.506.702.882.168.376.252.812.252 1.308v.636a2.11 2.11 0 0 1-.744 1.02 1.966 1.966 0 0 1-1.212.396c-.392 0-.74-.096-1.044-.288a1.976 1.976 0 0 1-.714-.798Z" fill="#C0C2CE" data-color="1"></path>
        <path opacity=".801" fill-rule="evenodd" clip-rule="evenodd" d="m257.952 28.908-.624-.6c-.24.368-.508.64-.804.816a1.912 1.912 0 0 1-.996.264c-.584 0-1.062-.188-1.434-.564-.372-.376-.59-.86-.654-1.452h4.644v-.36c0-.608-.116-1.146-.348-1.614a2.691 2.691 0 0 0-.966-1.098 2.578 2.578 0 0 0-1.422-.396 2.72 2.72 0 0 0-1.47.408c-.436.272-.78.646-1.032 1.122a3.396 3.396 0 0 0-.378 1.614c0 .6.126 1.138.378 1.614.252.476.604.85 1.056 1.122.452.272.974.408 1.566.408.504 0 .966-.106 1.386-.318.42-.212.786-.534 1.098-.966Zm-3.87-3.672c.348-.352.77-.528 1.266-.528s.902.172 1.218.516c.316.344.502.808.558 1.392h-3.672c.072-.568.282-1.028.63-1.38Z" fill="#C0C2CE" data-color="1"></path>
        <path opacity=".801" d="M259.992 24.096h-.612c.192-.256.348-.526.468-.81.12-.284.188-.538.204-.762a.63.63 0 0 1-.426-.222.678.678 0 0 1-.174-.462c0-.208.064-.38.192-.516a.646.646 0 0 1 .492-.204.68.68 0 0 1 .51.204c.132.136.198.32.198.552 0 .344-.08.726-.24 1.146-.16.42-.364.778-.612 1.074Z" fill="#C0C2CE" data-color="1"></path>
        <path opacity=".801" d="M261.96 31.548a9.833 9.833 0 0 0 1.248-2.55 8.8 8.8 0 0 0 .408-2.646c0-.928-.132-1.802-.396-2.622-.264-.82-.68-1.654-1.248-2.502h.888a7.893 7.893 0 0 1 1.242 2.394c.276.868.414 1.778.414 2.73 0 .968-.14 1.894-.42 2.778a7.937 7.937 0 0 1-1.248 2.418h-.888Z" fill="#C0C2CE" data-color="1"></path>
        <path opacity=".801" d="M266.844 30.144a.665.665 0 0 1-.498-.204.696.696 0 0 1-.198-.504c0-.2.066-.368.198-.504a.665.665 0 0 1 .498-.204c.2 0 .366.068.498.204a.696.696 0 0 1 .198.504c0 .2-.066.368-.198.504a.665.665 0 0 1-.498.204Z" fill="#C0C2CE" data-color="1"></path>
        <path opacity=".801" fill-rule="evenodd" clip-rule="evenodd" d="M274.434 31.044c.252-.456.378-.976.378-1.56v-5.388h-.912v1.056a2.134 2.134 0 0 0-.846-.918c-.372-.22-.802-.33-1.29-.33a2.61 2.61 0 0 0-1.44.408c-.424.272-.76.642-1.008 1.11a3.317 3.317 0 0 0-.372 1.578c0 .592.122 1.12.366 1.584.244.464.582.828 1.014 1.092.432.264.924.396 1.476.396.464 0 .878-.096 1.242-.288a2.13 2.13 0 0 0 .846-.78v.48c0 .44-.086.828-.258 1.164-.172.336-.41.598-.714.786a1.966 1.966 0 0 1-1.056.282c-.784 0-1.408-.316-1.872-.948l-.612.624c.296.36.658.638 1.086.834.428.196.898.294 1.41.294.568 0 1.074-.132 1.518-.396a2.821 2.821 0 0 0 1.044-1.08Zm-4.26-2.862a2.585 2.585 0 0 1-.258-1.182c0-.448.084-.844.252-1.188.168-.344.402-.614.702-.81.3-.196.642-.294 1.026-.294.392 0 .738.106 1.038.318.3.212.534.506.702.882.168.376.252.812.252 1.308v.636a2.11 2.11 0 0 1-.744 1.02 1.966 1.966 0 0 1-1.212.396c-.392 0-.74-.096-1.044-.288a1.976 1.976 0 0 1-.714-.798Z" fill="#C0C2CE" data-color="1"></path>
        <path opacity=".801" fill-rule="evenodd" clip-rule="evenodd" d="m281.964 28.908-.624-.6c-.24.368-.508.64-.804.816a1.912 1.912 0 0 1-.996.264c-.584 0-1.062-.188-1.434-.564-.372-.376-.59-.86-.654-1.452h4.644v-.36c0-.608-.116-1.146-.348-1.614a2.691 2.691 0 0 0-.966-1.098 2.578 2.578 0 0 0-1.422-.396 2.72 2.72 0 0 0-1.47.408c-.436.272-.78.646-1.032 1.122a3.396 3.396 0 0 0-.378 1.614c0 .6.126 1.138.378 1.614.252.476.604.85 1.056 1.122.452.272.974.408 1.566.408.504 0 .966-.106 1.386-.318.42-.212.786-.534 1.098-.966Zm-3.87-3.672c.348-.352.77-.528 1.266-.528s.902.172 1.218.516c.316.344.502.808.558 1.392h-3.672c.072-.568.282-1.028.63-1.38Z" fill="#C0C2CE" data-color="1"></path>
        <path opacity=".801" d="M286.836 30h-1.32c-.416 0-.732-.114-.948-.342-.216-.228-.324-.554-.324-.978v-3.792h-1.128v-.792h1.128v-1.728h.924v1.728h1.584v.792h-1.584v3.708c0 .408.192.612.576.612h1.092V30Z" fill="#C0C2CE" data-color="1"></path>
        <path opacity=".801" fill-rule="evenodd" clip-rule="evenodd" d="M288.564 30h.96v-3.756h2.184c.536 0 1.004-.102 1.404-.306.4-.204.712-.486.936-.846.224-.36.336-.78.336-1.26 0-.488-.112-.912-.336-1.272a2.272 2.272 0 0 0-.936-.84c-.4-.2-.868-.3-1.404-.3h-3.144V30Zm.96-7.74h2.184c.528 0 .942.138 1.242.414.3.276.45.662.45 1.158 0 .488-.15.872-.45 1.152-.3.28-.714.42-1.242.42h-2.184V22.26Z" fill="#C0C2CE" data-color="1"></path>
        <path opacity=".801" d="M299.244 24v.888h-.204c-.368 0-.71.094-1.026.282-.316.188-.57.476-.762.864-.192.388-.288.886-.288 1.494V30h-.924v-5.904h.912v1.32c.2-.512.496-.876.888-1.092a2.481 2.481 0 0 1 1.212-.324h.192Z" fill="#C0C2CE" data-color="1"></path>
        <path opacity=".801" fill-rule="evenodd" clip-rule="evenodd" d="M301.608 29.784c.448.272.956.408 1.524.408a2.9 2.9 0 0 0 1.536-.408 2.85 2.85 0 0 0 1.05-1.116c.252-.472.378-1.012.378-1.62 0-.608-.126-1.148-.378-1.62a2.85 2.85 0 0 0-1.05-1.116 2.9 2.9 0 0 0-1.536-.408c-.568 0-1.076.136-1.524.408a2.85 2.85 0 0 0-1.05 1.116c-.252.472-.378 1.012-.378 1.62 0 .608.126 1.148.378 1.62a2.85 2.85 0 0 0 1.05 1.116Zm2.568-.696c-.296.2-.644.3-1.044.3a1.8 1.8 0 0 1-1.032-.3 2.028 2.028 0 0 1-.696-.828 2.782 2.782 0 0 1-.252-1.212c0-.464.084-.87.252-1.218.168-.348.4-.622.696-.822.296-.2.64-.3 1.032-.3.4 0 .748.1 1.044.3.296.2.528.474.696.822.168.348.252.754.252 1.218 0 .456-.084.86-.252 1.212-.168.352-.4.628-.696.828Z" fill="#C0C2CE" data-color="1"></path>
        <path opacity=".801" fill-rule="evenodd" clip-rule="evenodd" d="M312.348 29.064V30h.912v-8.64h-.924v3.78a2.278 2.278 0 0 0-.864-.9 2.415 2.415 0 0 0-1.26-.336c-.536 0-1.018.136-1.446.408a2.826 2.826 0 0 0-1.008 1.122c-.244.476-.366 1.014-.366 1.614 0 .608.124 1.148.372 1.62a2.88 2.88 0 0 0 1.014 1.116c.428.272.918.408 1.47.408.464 0 .88-.102 1.248-.306a2.19 2.19 0 0 0 .852-.822Zm-3.726-.804a2.727 2.727 0 0 1-.258-1.212c0-.456.084-.86.252-1.212a2.01 2.01 0 0 1 .702-.828c.3-.2.642-.3 1.026-.3.392 0 .738.106 1.038.318.3.212.534.506.702.882.168.376.252.812.252 1.308v.756a2.073 2.073 0 0 1-.744 1.026c-.352.26-.756.39-1.212.39-.392 0-.74-.1-1.044-.3a2.037 2.037 0 0 1-.714-.828Z" fill="#C0C2CE" data-color="1"></path>
        <path opacity=".801" d="M320.304 30h-.912v-.936a2.16 2.16 0 0 1-.81.822 2.317 2.317 0 0 1-1.194.306c-.664 0-1.196-.212-1.596-.636-.4-.424-.6-1.036-.6-1.836v-3.624h.924v3.528c0 .576.128 1.014.384 1.314.256.3.616.45 1.08.45.408 0 .776-.126 1.104-.378.328-.252.56-.59.696-1.014v-3.9h.924V30Z" fill="#C0C2CE" data-color="1"></path>
        <path opacity=".801" d="m326.628 28.428.648.612c-.568.768-1.352 1.152-2.352 1.152-.576 0-1.086-.134-1.53-.402a2.82 2.82 0 0 1-1.044-1.11c-.252-.472-.378-1.016-.378-1.632 0-.616.128-1.16.384-1.632a2.85 2.85 0 0 1 1.056-1.11c.448-.268.96-.402 1.536-.402 1 0 1.78.384 2.34 1.152l-.66.612c-.168-.304-.4-.54-.696-.708a2.006 2.006 0 0 0-1.008-.252c-.584 0-1.06.212-1.428.636-.368.424-.552.992-.552 1.704 0 .704.186 1.27.558 1.698.372.428.858.642 1.458.642.72 0 1.276-.32 1.668-.96Z" fill="#C0C2CE" data-color="1"></path>
        <path opacity=".801" d="M331.848 30h-1.32c-.416 0-.732-.114-.948-.342-.216-.228-.324-.554-.324-.978v-3.792h-1.128v-.792h1.128v-1.728h.924v1.728h1.584v.792h-1.584v3.708c0 .408.192.612.576.612h1.092V30Z" fill="#C0C2CE" data-color="1"></path>
        <path opacity=".801" d="M335.736 31.548h-.888a7.937 7.937 0 0 1-1.248-2.418 9.145 9.145 0 0 1-.42-2.778c0-.952.138-1.862.414-2.73a7.893 7.893 0 0 1 1.242-2.394h.888c-.56.848-.974 1.682-1.242 2.502a8.389 8.389 0 0 0-.402 2.622 8.8 8.8 0 0 0 .408 2.646 9.833 9.833 0 0 0 1.248 2.55Z" fill="#C0C2CE" data-color="1"></path>
        <path opacity=".801" d="M336.672 31.548a9.833 9.833 0 0 0 1.248-2.55 8.8 8.8 0 0 0 .408-2.646c0-.928-.132-1.802-.396-2.622-.264-.82-.68-1.654-1.248-2.502h.888a7.893 7.893 0 0 1 1.242 2.394c.276.868.414 1.778.414 2.73 0 .968-.14 1.894-.42 2.778a7.937 7.937 0 0 1-1.248 2.418h-.888Z" fill="#C0C2CE" data-color="1"></path>
        <path opacity=".801" fill-rule="evenodd" clip-rule="evenodd" d="m6.144 48.512.648-.6c.552.792 1.256 1.236 2.112 1.332V45.92c-.88-.184-1.512-.446-1.896-.786-.384-.34-.576-.822-.576-1.446a2.1 2.1 0 0 1 .318-1.134c.212-.34.506-.614.882-.822a3.163 3.163 0 0 1 1.284-.372v-1.332h.732v1.344c.488.064.936.226 1.344.486.408.26.768.61 1.08 1.05l-.648.6c-.472-.728-1.064-1.164-1.776-1.308v3c.928.192 1.594.47 1.998.834.404.364.606.878.606 1.542 0 .44-.108.838-.324 1.194-.216.356-.52.648-.912.876-.392.228-.852.366-1.38.414v1.332h-.732V50.06c-1.136-.096-2.056-.612-2.76-1.548Zm1.164-4.836c0 .4.126.704.378.912.252.208.662.368 1.23.48v-2.892c-.48.056-.868.22-1.164.492a1.314 1.314 0 0 0-.444 1.008Zm3.66 2.946c.272.236.408.554.408.954 0 .44-.156.814-.468 1.122-.312.308-.736.49-1.272.546v-3.18c.616.136 1.06.322 1.332.558Z" fill="#C0C2CE" data-color="1"></path>
        <path opacity=".801" d="M19.968 50h-1.032l-1.356-4.74L16.236 50h-1.044l-1.752-5.904h.948l1.344 4.908 1.392-4.908h.936l1.392 4.956 1.38-4.956h.912L19.968 50Z" fill="#C0C2CE" data-color="1"></path>
        <path opacity=".801" d="M25.632 51.548h-.888a7.937 7.937 0 0 1-1.248-2.418 9.145 9.145 0 0 1-.42-2.778c0-.952.138-1.862.414-2.73a7.893 7.893 0 0 1 1.242-2.394h.888c-.56.848-.974 1.682-1.242 2.502a8.389 8.389 0 0 0-.402 2.622 8.8 8.8 0 0 0 .408 2.646 9.833 9.833 0 0 0 1.248 2.55Z" fill="#C0C2CE" data-color="1"></path>
        <path opacity=".801" fill-rule="evenodd" clip-rule="evenodd" d="M28.212 41.168H27.6a3.734 3.734 0 0 0-.612 1.068c-.16.416-.24.8-.24 1.152 0 .224.066.406.198.546a.67.67 0 0 0 .51.21.641.641 0 0 0 .498-.204.737.737 0 0 0 .186-.516.678.678 0 0 0-.174-.462.63.63 0 0 0-.426-.222c.016-.224.084-.478.204-.762.12-.284.276-.554.468-.81Zm1.716 0h-.612a3.734 3.734 0 0 0-.612 1.068c-.16.416-.24.8-.24 1.152 0 .224.066.406.198.546a.67.67 0 0 0 .51.21.641.641 0 0 0 .498-.204.737.737 0 0 0 .186-.516.678.678 0 0 0-.174-.462.63.63 0 0 0-.426-.222c.016-.224.084-.478.204-.762.12-.284.276-.554.468-.81Z" fill="#C0C2CE" data-color="1"></path>
        <path opacity=".801" fill-rule="evenodd" clip-rule="evenodd" d="M31.74 50h.804l.48-2.4h2.088l-.48 2.4h.804l.48-2.4h1.02l.144-.696h-1.02l.468-2.388h1.02l.144-.696h-1.02l.48-2.4h-.804l-.48 2.4H33.78l.48-2.4h-.804l-.48 2.4h-1.02l-.144.696h1.02l-.468 2.388h-1.02l-.144.696h1.02l-.48 2.4Zm3.516-3.096h-2.088l.468-2.388h2.088l-.468 2.388Z" fill="#C0C2CE" data-color="1"></path>
        <path opacity=".801" d="m38.652 49.088.6-.636c.256.296.55.53.882.702.332.172.706.258 1.122.258.432 0 .782-.1 1.05-.3a.93.93 0 0 0 .402-.78.727.727 0 0 0-.342-.63c-.228-.156-.618-.274-1.17-.354-.84-.136-1.43-.332-1.77-.588-.34-.256-.51-.612-.51-1.068 0-.544.212-.978.636-1.302.424-.324.972-.486 1.644-.486.496 0 .94.096 1.332.288.392.192.74.464 1.044.816l-.6.636a2.67 2.67 0 0 0-.774-.702 1.937 1.937 0 0 0-1.002-.258c-.392 0-.712.09-.96.27-.248.18-.372.41-.372.69 0 .224.104.402.312.534.208.132.576.238 1.104.318.872.128 1.488.334 1.848.618.36.284.54.686.54 1.206 0 .368-.104.694-.312.978a2.022 2.022 0 0 1-.858.66 3.126 3.126 0 0 1-1.242.234c-.576 0-1.072-.098-1.488-.294a3.729 3.729 0 0 1-1.116-.81Z" fill="#C0C2CE" data-color="1"></path>
        <path opacity=".801" d="M48.324 50h-1.32c-.416 0-.732-.114-.948-.342-.216-.228-.324-.554-.324-.978v-3.792h-1.128v-.792h1.128v-1.728h.924v1.728h1.584v.792h-1.584v3.708c0 .408.192.612.576.612h1.092V50Z" fill="#C0C2CE" data-color="1"></path>
        <path opacity=".801" fill-rule="evenodd" clip-rule="evenodd" d="M50.856 49.784c.448.272.956.408 1.524.408a2.9 2.9 0 0 0 1.536-.408 2.85 2.85 0 0 0 1.05-1.116c.252-.472.378-1.012.378-1.62 0-.608-.126-1.148-.378-1.62a2.85 2.85 0 0 0-1.05-1.116 2.9 2.9 0 0 0-1.536-.408c-.568 0-1.076.136-1.524.408a2.85 2.85 0 0 0-1.05 1.116c-.252.472-.378 1.012-.378 1.62 0 .608.126 1.148.378 1.62a2.85 2.85 0 0 0 1.05 1.116Zm2.568-.696c-.296.2-.644.3-1.044.3a1.8 1.8 0 0 1-1.032-.3 2.028 2.028 0 0 1-.696-.828 2.782 2.782 0 0 1-.252-1.212c0-.464.084-.87.252-1.218.168-.348.4-.622.696-.822.296-.2.64-.3 1.032-.3.4 0 .748.1 1.044.3.296.2.528.474.696.822.168.348.252.754.252 1.218 0 .456-.084.86-.252 1.212-.168.352-.4.628-.696.828Z" fill="#C0C2CE" data-color="1"></path>
        <path opacity=".801" d="M60.216 44v.888h-.204c-.368 0-.71.094-1.026.282-.316.188-.57.476-.762.864-.192.388-.288.886-.288 1.494V50h-.924v-5.904h.912v1.32c.2-.512.496-.876.888-1.092A2.481 2.481 0 0 1 60.024 44h.192Z" fill="#C0C2CE" data-color="1"></path>
        <path opacity=".801" fill-rule="evenodd" clip-rule="evenodd" d="m66.636 48.908-.624-.6c-.24.368-.508.64-.804.816a1.912 1.912 0 0 1-.996.264c-.584 0-1.062-.188-1.434-.564-.372-.376-.59-.86-.654-1.452h4.644v-.36c0-.608-.116-1.146-.348-1.614a2.691 2.691 0 0 0-.966-1.098 2.578 2.578 0 0 0-1.422-.396 2.72 2.72 0 0 0-1.47.408c-.436.272-.78.646-1.032 1.122a3.396 3.396 0 0 0-.378 1.614c0 .6.126 1.138.378 1.614.252.476.604.85 1.056 1.122.452.272.974.408 1.566.408.504 0 .966-.106 1.386-.318.42-.212.786-.534 1.098-.966Zm-3.87-3.672c.348-.352.77-.528 1.266-.528s.902.172 1.218.516c.316.344.502.808.558 1.392h-3.672c.072-.568.282-1.028.63-1.38Z" fill="#C0C2CE" data-color="1"></path>
        <path opacity=".801" d="m74.796 47.9.672.66a3.614 3.614 0 0 1-1.38 1.194 3.932 3.932 0 0 1-1.8.438 3.89 3.89 0 0 1-1.62-.336 3.94 3.94 0 0 1-1.302-.948 4.376 4.376 0 0 1-.864-1.428 4.984 4.984 0 0 1-.306-1.764c0-.64.104-1.232.312-1.776.208-.544.496-1.02.864-1.428a3.845 3.845 0 0 1 1.308-.948 3.972 3.972 0 0 1 1.632-.336c.656 0 1.254.14 1.794.42.54.28.994.684 1.362 1.212l-.672.66c-.592-.952-1.428-1.428-2.508-1.428-.592 0-1.122.156-1.59.468-.468.312-.836.74-1.104 1.284-.268.544-.402 1.168-.402 1.872 0 .688.134 1.306.402 1.854s.636.978 1.104 1.29c.468.312.998.468 1.59.468.528 0 1.006-.122 1.434-.366a3.03 3.03 0 0 0 1.074-1.062Z" fill="#C0C2CE" data-color="1"></path>
        <path opacity=".801" fill-rule="evenodd" clip-rule="evenodd" d="M77.58 49.952c.32.16.688.24 1.104.24.448 0 .852-.09 1.212-.27.36-.18.652-.422.876-.726V50h.876v-3.72c0-.48-.104-.898-.312-1.254a2.134 2.134 0 0 0-.876-.828c-.376-.196-.816-.294-1.32-.294-.92 0-1.716.352-2.388 1.056l.6.588c.472-.568 1.048-.852 1.728-.852.52 0 .93.146 1.23.438.3.292.45.686.45 1.182v.048h-1.656c-.776 0-1.394.176-1.854.528-.46.352-.69.828-.69 1.428 0 .36.09.682.27.966.18.284.43.506.75.666Zm2.448-.882c-.344.236-.748.354-1.212.354-.392 0-.706-.104-.942-.312-.236-.208-.354-.484-.354-.828 0-.376.148-.666.444-.87.296-.204.712-.306 1.248-.306h1.548v1.02a1.918 1.918 0 0 1-.732.942Z" fill="#C0C2CE" data-color="1"></path>
        <path opacity=".801" d="M86.784 44v.888h-.204c-.368 0-.71.094-1.026.282-.316.188-.57.476-.762.864-.192.388-.288.886-.288 1.494V50h-.924v-5.904h.912v1.32c.2-.512.496-.876.888-1.092A2.481 2.481 0 0 1 86.592 44h.192Z" fill="#C0C2CE" data-color="1"></path>
        <path opacity=".801" d="M91.164 50h-1.32c-.416 0-.732-.114-.948-.342-.216-.228-.324-.554-.324-.978v-3.792h-1.128v-.792h1.128v-1.728h.924v1.728h1.584v.792h-1.584v3.708c0 .408.192.612.576.612h1.092V50Z" fill="#C0C2CE" data-color="1"></path>
        <path opacity=".801" fill-rule="evenodd" clip-rule="evenodd" d="M92.268 44.096h.612c.248-.296.452-.654.612-1.074.16-.42.24-.802.24-1.146 0-.232-.066-.416-.198-.552a.68.68 0 0 0-.51-.204c-.2 0-.364.068-.492.204a.723.723 0 0 0-.192.516c0 .176.058.33.174.462a.63.63 0 0 0 .426.222 2.442 2.442 0 0 1-.204.762c-.12.284-.276.554-.468.81Zm1.716 0h.612c.248-.296.452-.654.612-1.074.16-.42.24-.802.24-1.146 0-.232-.066-.416-.198-.552a.68.68 0 0 0-.51-.204c-.2 0-.364.068-.492.204a.723.723 0 0 0-.192.516c0 .176.058.33.174.462a.63.63 0 0 0 .426.222 2.442 2.442 0 0 1-.204.762c-.12.284-.276.554-.468.81Z" fill="#C0C2CE" data-color="1"></path>
        <path opacity=".801" d="M96.564 51.548a9.833 9.833 0 0 0 1.248-2.55 8.8 8.8 0 0 0 .408-2.646c0-.928-.132-1.802-.396-2.622-.264-.82-.68-1.654-1.248-2.502h.888a7.893 7.893 0 0 1 1.242 2.394c.276.868.414 1.778.414 2.73 0 .968-.14 1.894-.42 2.778a7.937 7.937 0 0 1-1.248 2.418h-.888Z" fill="#C0C2CE" data-color="1"></path>
        <path opacity=".801" d="M101.448 50.144a.665.665 0 0 1-.498-.204.696.696 0 0 1-.198-.504c0-.2.066-.368.198-.504a.665.665 0 0 1 .498-.204c.2 0 .366.068.498.204a.696.696 0 0 1 .198.504c0 .2-.066.368-.198.504a.665.665 0 0 1-.498.204Z" fill="#C0C2CE" data-color="1"></path>
        <path opacity=".801" fill-rule="evenodd" clip-rule="evenodd" d="M104.436 49.952c.32.16.688.24 1.104.24.448 0 .852-.09 1.212-.27.36-.18.652-.422.876-.726V50h.876v-3.72c0-.48-.104-.898-.312-1.254a2.134 2.134 0 0 0-.876-.828c-.376-.196-.816-.294-1.32-.294-.92 0-1.716.352-2.388 1.056l.6.588c.472-.568 1.048-.852 1.728-.852.52 0 .93.146 1.23.438.3.292.45.686.45 1.182v.048h-1.656c-.776 0-1.394.176-1.854.528-.46.352-.69.828-.69 1.428 0 .36.09.682.27.966.18.284.43.506.75.666Zm2.448-.882c-.344.236-.748.354-1.212.354-.392 0-.706-.104-.942-.312-.236-.208-.354-.484-.354-.828 0-.376.148-.666.444-.87.296-.204.712-.306 1.248-.306h1.548v1.02a1.918 1.918 0 0 1-.732.942Z" fill="#C0C2CE" data-color="1"></path>
        <path opacity=".801" fill-rule="evenodd" clip-rule="evenodd" d="M115.02 49.064V50h.912v-8.64h-.924v3.78a2.278 2.278 0 0 0-.864-.9 2.415 2.415 0 0 0-1.26-.336c-.536 0-1.018.136-1.446.408a2.826 2.826 0 0 0-1.008 1.122c-.244.476-.366 1.014-.366 1.614 0 .608.124 1.148.372 1.62a2.88 2.88 0 0 0 1.014 1.116c.428.272.918.408 1.47.408.464 0 .88-.102 1.248-.306a2.19 2.19 0 0 0 .852-.822Zm-3.726-.804a2.727 2.727 0 0 1-.258-1.212c0-.456.084-.86.252-1.212a2.01 2.01 0 0 1 .702-.828c.3-.2.642-.3 1.026-.3.392 0 .738.106 1.038.318.3.212.534.506.702.882.168.376.252.812.252 1.308v.756a2.073 2.073 0 0 1-.744 1.026c-.352.26-.756.39-1.212.39-.392 0-.74-.1-1.044-.3a2.037 2.037 0 0 1-.714-.828Z" fill="#C0C2CE" data-color="1"></path>
        <path opacity=".801" fill-rule="evenodd" clip-rule="evenodd" d="M122.556 49.064V50h.912v-8.64h-.924v3.78a2.278 2.278 0 0 0-.864-.9 2.415 2.415 0 0 0-1.26-.336c-.536 0-1.018.136-1.446.408a2.826 2.826 0 0 0-1.008 1.122c-.244.476-.366 1.014-.366 1.614 0 .608.124 1.148.372 1.62a2.88 2.88 0 0 0 1.014 1.116c.428.272.918.408 1.47.408.464 0 .88-.102 1.248-.306a2.19 2.19 0 0 0 .852-.822Zm-3.726-.804a2.727 2.727 0 0 1-.258-1.212c0-.456.084-.86.252-1.212a2.01 2.01 0 0 1 .702-.828c.3-.2.642-.3 1.026-.3.392 0 .738.106 1.038.318.3.212.534.506.702.882.168.376.252.812.252 1.308v.756a2.073 2.073 0 0 1-.744 1.026c-.352.26-.756.39-1.212.39-.392 0-.74-.1-1.044-.3a2.037 2.037 0 0 1-.714-.828Z" fill="#C0C2CE" data-color="1"></path>
        <path opacity=".801" d="M128.568 50h-.96v-7.728h-2.664v-.852h6.288v.852h-2.664V50Z" fill="#C0C2CE" data-color="1"></path>
        <path opacity=".801" fill-rule="evenodd" clip-rule="evenodd" d="M133.764 49.784c.448.272.956.408 1.524.408a2.9 2.9 0 0 0 1.536-.408 2.85 2.85 0 0 0 1.05-1.116c.252-.472.378-1.012.378-1.62 0-.608-.126-1.148-.378-1.62a2.85 2.85 0 0 0-1.05-1.116 2.9 2.9 0 0 0-1.536-.408c-.568 0-1.076.136-1.524.408a2.85 2.85 0 0 0-1.05 1.116c-.252.472-.378 1.012-.378 1.62 0 .608.126 1.148.378 1.62a2.85 2.85 0 0 0 1.05 1.116Zm2.568-.696c-.296.2-.644.3-1.044.3a1.8 1.8 0 0 1-1.032-.3 2.028 2.028 0 0 1-.696-.828 2.782 2.782 0 0 1-.252-1.212c0-.464.084-.87.252-1.218.168-.348.4-.622.696-.822.296-.2.64-.3 1.032-.3.4 0 .748.1 1.044.3.296.2.528.474.696.822.168.348.252.754.252 1.218 0 .456-.084.86-.252 1.212-.168.352-.4.628-.696.828Z" fill="#C0C2CE" data-color="1"></path>
        <path opacity=".801" d="m146.28 47.9.672.66a3.614 3.614 0 0 1-1.38 1.194 3.932 3.932 0 0 1-1.8.438 3.89 3.89 0 0 1-1.62-.336 3.94 3.94 0 0 1-1.302-.948 4.376 4.376 0 0 1-.864-1.428 4.984 4.984 0 0 1-.306-1.764c0-.64.104-1.232.312-1.776.208-.544.496-1.02.864-1.428a3.845 3.845 0 0 1 1.308-.948 3.972 3.972 0 0 1 1.632-.336c.656 0 1.254.14 1.794.42.54.28.994.684 1.362 1.212l-.672.66c-.592-.952-1.428-1.428-2.508-1.428-.592 0-1.122.156-1.59.468-.468.312-.836.74-1.104 1.284-.268.544-.402 1.168-.402 1.872 0 .688.134 1.306.402 1.854s.636.978 1.104 1.29c.468.312.998.468 1.59.468.528 0 1.006-.122 1.434-.366a3.03 3.03 0 0 0 1.074-1.062Z" fill="#C0C2CE" data-color="1"></path>
        <path opacity=".801" fill-rule="evenodd" clip-rule="evenodd" d="M149.064 49.952c.32.16.688.24 1.104.24.448 0 .852-.09 1.212-.27.36-.18.652-.422.876-.726V50h.876v-3.72c0-.48-.104-.898-.312-1.254a2.134 2.134 0 0 0-.876-.828c-.376-.196-.816-.294-1.32-.294-.92 0-1.716.352-2.388 1.056l.6.588c.472-.568 1.048-.852 1.728-.852.52 0 .93.146 1.23.438.3.292.45.686.45 1.182v.048h-1.656c-.776 0-1.394.176-1.854.528-.46.352-.69.828-.69 1.428 0 .36.09.682.27.966.18.284.43.506.75.666Zm2.448-.882c-.344.236-.748.354-1.212.354-.392 0-.706-.104-.942-.312-.236-.208-.354-.484-.354-.828 0-.376.148-.666.444-.87.296-.204.712-.306 1.248-.306h1.548v1.02a1.918 1.918 0 0 1-.732.942Z" fill="#C0C2CE" data-color="1"></path>
        <path opacity=".801" d="M158.268 44v.888h-.204c-.368 0-.71.094-1.026.282-.316.188-.57.476-.762.864-.192.388-.288.886-.288 1.494V50h-.924v-5.904h.912v1.32c.2-.512.496-.876.888-1.092a2.481 2.481 0 0 1 1.212-.324h.192Z" fill="#C0C2CE" data-color="1"></path>
        <path opacity=".801" d="M162.648 50h-1.32c-.416 0-.732-.114-.948-.342-.216-.228-.324-.554-.324-.978v-3.792h-1.128v-.792h1.128v-1.728h.924v1.728h1.584v.792h-1.584v3.708c0 .408.192.612.576.612h1.092V50Z" fill="#C0C2CE" data-color="1"></path>
        <path opacity=".801" d="M166.536 51.548h-.888a7.937 7.937 0 0 1-1.248-2.418 9.145 9.145 0 0 1-.42-2.778c0-.952.138-1.862.414-2.73a7.893 7.893 0 0 1 1.242-2.394h.888c-.56.848-.974 1.682-1.242 2.502a8.389 8.389 0 0 0-.402 2.622 8.8 8.8 0 0 0 .408 2.646 9.833 9.833 0 0 0 1.248 2.55Z" fill="#C0C2CE" data-color="1"></path>
        <path opacity=".801" d="m172.308 48.428.648.612c-.568.768-1.352 1.152-2.352 1.152-.576 0-1.086-.134-1.53-.402a2.82 2.82 0 0 1-1.044-1.11c-.252-.472-.378-1.016-.378-1.632 0-.616.128-1.16.384-1.632a2.85 2.85 0 0 1 1.056-1.11c.448-.268.96-.402 1.536-.402 1 0 1.78.384 2.34 1.152l-.66.612c-.168-.304-.4-.54-.696-.708a2.006 2.006 0 0 0-1.008-.252c-.584 0-1.06.212-1.428.636-.368.424-.552.992-.552 1.704 0 .704.186 1.27.558 1.698.372.428.858.642 1.458.642.72 0 1.276-.32 1.668-.96Z" fill="#C0C2CE" data-color="1"></path>
        <path opacity=".801" d="M179.46 50h-.912v-.936a2.16 2.16 0 0 1-.81.822 2.317 2.317 0 0 1-1.194.306c-.664 0-1.196-.212-1.596-.636-.4-.424-.6-1.036-.6-1.836v-3.624h.924v3.528c0 .576.128 1.014.384 1.314.256.3.616.45 1.08.45.408 0 .776-.126 1.104-.378.328-.252.56-.59.696-1.014v-3.9h.924V50Z" fill="#C0C2CE" data-color="1"></path>
        <path opacity=".801" d="M184.704 44v.888h-.204c-.368 0-.71.094-1.026.282-.316.188-.57.476-.762.864-.192.388-.288.886-.288 1.494V50h-.924v-5.904h.912v1.32c.2-.512.496-.876.888-1.092a2.481 2.481 0 0 1 1.212-.324h.192Z" fill="#C0C2CE" data-color="1"></path>
        <path opacity=".801" d="M189.216 44v.888h-.204c-.368 0-.71.094-1.026.282-.316.188-.57.476-.762.864-.192.388-.288.886-.288 1.494V50h-.924v-5.904h.912v1.32c.2-.512.496-.876.888-1.092a2.481 2.481 0 0 1 1.212-.324h.192Z" fill="#C0C2CE" data-color="1"></path>
        <path opacity=".801" fill-rule="evenodd" clip-rule="evenodd" d="m195.636 48.908-.624-.6c-.24.368-.508.64-.804.816a1.912 1.912 0 0 1-.996.264c-.584 0-1.062-.188-1.434-.564-.372-.376-.59-.86-.654-1.452h4.644v-.36c0-.608-.116-1.146-.348-1.614a2.691 2.691 0 0 0-.966-1.098 2.578 2.578 0 0 0-1.422-.396 2.72 2.72 0 0 0-1.47.408c-.436.272-.78.646-1.032 1.122a3.396 3.396 0 0 0-.378 1.614c0 .6.126 1.138.378 1.614.252.476.604.85 1.056 1.122.452.272.974.408 1.566.408.504 0 .966-.106 1.386-.318.42-.212.786-.534 1.098-.966Zm-3.87-3.672c.348-.352.77-.528 1.266-.528s.902.172 1.218.516c.316.344.502.808.558 1.392h-3.672c.072-.568.282-1.028.63-1.38Z" fill="#C0C2CE" data-color="1"></path>
        <path opacity=".801" d="M202.572 50h-.924v-3.396c0-.624-.13-1.094-.39-1.41-.26-.316-.61-.474-1.05-.474-.32 0-.62.09-.9.27-.28.18-.508.464-.684.852-.176.388-.264.89-.264 1.506V50h-.924v-5.904h.912v1.212c.192-.512.476-.874.852-1.086a2.384 2.384 0 0 1 1.188-.318c.68 0 1.214.222 1.602.666.388.444.582 1.086.582 1.926V50Z" fill="#C0C2CE" data-color="1"></path>
        <path opacity=".801" d="M207.576 50h-1.32c-.416 0-.732-.114-.948-.342-.216-.228-.324-.554-.324-.978v-3.792h-1.128v-.792h1.128v-1.728h.924v1.728h1.584v.792h-1.584v3.708c0 .408.192.612.576.612h1.092V50Z" fill="#C0C2CE" data-color="1"></path>
        <path opacity=".801" fill-rule="evenodd" clip-rule="evenodd" d="M209.304 50h.96v-3.756h2.184c.536 0 1.004-.102 1.404-.306.4-.204.712-.486.936-.846.224-.36.336-.78.336-1.26 0-.488-.112-.912-.336-1.272a2.272 2.272 0 0 0-.936-.84c-.4-.2-.868-.3-1.404-.3h-3.144V50Zm.96-7.74h2.184c.528 0 .942.138 1.242.414.3.276.45.662.45 1.158 0 .488-.15.872-.45 1.152-.3.28-.714.42-1.242.42h-2.184V42.26Z" fill="#C0C2CE" data-color="1"></path>
        <path opacity=".801" d="M219.984 44v.888h-.204c-.368 0-.71.094-1.026.282-.316.188-.57.476-.762.864-.192.388-.288.886-.288 1.494V50h-.924v-5.904h.912v1.32c.2-.512.496-.876.888-1.092a2.481 2.481 0 0 1 1.212-.324h.192Z" fill="#C0C2CE" data-color="1"></path>
        <path opacity=".801" fill-rule="evenodd" clip-rule="evenodd" d="M222.348 49.784c.448.272.956.408 1.524.408a2.9 2.9 0 0 0 1.536-.408 2.85 2.85 0 0 0 1.05-1.116c.252-.472.378-1.012.378-1.62 0-.608-.126-1.148-.378-1.62a2.85 2.85 0 0 0-1.05-1.116 2.9 2.9 0 0 0-1.536-.408c-.568 0-1.076.136-1.524.408a2.85 2.85 0 0 0-1.05 1.116c-.252.472-.378 1.012-.378 1.62 0 .608.126 1.148.378 1.62a2.85 2.85 0 0 0 1.05 1.116Zm2.568-.696c-.296.2-.644.3-1.044.3a1.8 1.8 0 0 1-1.032-.3 2.028 2.028 0 0 1-.696-.828 2.782 2.782 0 0 1-.252-1.212c0-.464.084-.87.252-1.218.168-.348.4-.622.696-.822.296-.2.64-.3 1.032-.3.4 0 .748.1 1.044.3.296.2.528.474.696.822.168.348.252.754.252 1.218 0 .456-.084.86-.252 1.212-.168.352-.4.628-.696.828Z" fill="#C0C2CE" data-color="1"></path>
        <path opacity=".801" fill-rule="evenodd" clip-rule="evenodd" d="M233.088 49.064V50H234v-8.64h-.924v3.78a2.278 2.278 0 0 0-.864-.9 2.415 2.415 0 0 0-1.26-.336c-.536 0-1.018.136-1.446.408a2.826 2.826 0 0 0-1.008 1.122c-.244.476-.366 1.014-.366 1.614 0 .608.124 1.148.372 1.62a2.88 2.88 0 0 0 1.014 1.116c.428.272.918.408 1.47.408.464 0 .88-.102 1.248-.306a2.19 2.19 0 0 0 .852-.822Zm-3.726-.804a2.727 2.727 0 0 1-.258-1.212c0-.456.084-.86.252-1.212a2.01 2.01 0 0 1 .702-.828c.3-.2.642-.3 1.026-.3.392 0 .738.106 1.038.318.3.212.534.506.702.882.168.376.252.812.252 1.308v.756a2.073 2.073 0 0 1-.744 1.026c-.352.26-.756.39-1.212.39-.392 0-.74-.1-1.044-.3a2.037 2.037 0 0 1-.714-.828Z" fill="#C0C2CE" data-color="1"></path>
        <path opacity=".801" d="M241.044 50h-.912v-.936a2.16 2.16 0 0 1-.81.822 2.317 2.317 0 0 1-1.194.306c-.664 0-1.196-.212-1.596-.636-.4-.424-.6-1.036-.6-1.836v-3.624h.924v3.528c0 .576.128 1.014.384 1.314.256.3.616.45 1.08.45.408 0 .776-.126 1.104-.378.328-.252.56-.59.696-1.014v-3.9h.924V50Z" fill="#C0C2CE" data-color="1"></path>
        <path opacity=".801" d="m247.368 48.428.648.612c-.568.768-1.352 1.152-2.352 1.152-.576 0-1.086-.134-1.53-.402a2.82 2.82 0 0 1-1.044-1.11c-.252-.472-.378-1.016-.378-1.632 0-.616.128-1.16.384-1.632a2.85 2.85 0 0 1 1.056-1.11c.448-.268.96-.402 1.536-.402 1 0 1.78.384 2.34 1.152l-.66.612c-.168-.304-.4-.54-.696-.708a2.006 2.006 0 0 0-1.008-.252c-.584 0-1.06.212-1.428.636-.368.424-.552.992-.552 1.704 0 .704.186 1.27.558 1.698.372.428.858.642 1.458.642.72 0 1.276-.32 1.668-.96Z" fill="#C0C2CE" data-color="1"></path>
        <path opacity=".801" d="M252.588 50h-1.32c-.416 0-.732-.114-.948-.342-.216-.228-.324-.554-.324-.978v-3.792h-1.128v-.792h1.128v-1.728h.924v1.728h1.584v.792h-1.584v3.708c0 .408.192.612.576.612h1.092V50Z" fill="#C0C2CE" data-color="1"></path>
        <path opacity=".801" d="M254.496 50.144a.665.665 0 0 1-.498-.204.696.696 0 0 1-.198-.504c0-.2.066-.368.198-.504a.665.665 0 0 1 .498-.204c.2 0 .366.068.498.204a.696.696 0 0 1 .198.504c0 .2-.066.368-.198.504a.665.665 0 0 1-.498.204Z" fill="#C0C2CE" data-color="1"></path>
        <path opacity=".801" d="M261.576 51.548h-5.628v-.768h5.628v.768Z" fill="#C0C2CE" data-color="1"></path>
        <path opacity=".801" fill-rule="evenodd" clip-rule="evenodd" d="M263.514 42.338a.642.642 0 0 0 .186-.474.642.642 0 0 0-.186-.474.627.627 0 0 0-.462-.186.627.627 0 0 0-.462.186.642.642 0 0 0-.186.474c0 .192.062.35.186.474a.627.627 0 0 0 .462.186.627.627 0 0 0 .462-.186ZM262.596 50h.924v-5.904h-.924V50Z" fill="#C0C2CE" data-color="1"></path>
        <path opacity=".801" fill-rule="evenodd" clip-rule="evenodd" d="M270.144 49.064V50h.912v-8.64h-.924v3.78a2.278 2.278 0 0 0-.864-.9 2.415 2.415 0 0 0-1.26-.336c-.536 0-1.018.136-1.446.408a2.826 2.826 0 0 0-1.008 1.122c-.244.476-.366 1.014-.366 1.614 0 .608.124 1.148.372 1.62a2.88 2.88 0 0 0 1.014 1.116c.428.272.918.408 1.47.408.464 0 .88-.102 1.248-.306a2.19 2.19 0 0 0 .852-.822Zm-3.726-.804a2.727 2.727 0 0 1-.258-1.212c0-.456.084-.86.252-1.212a2.01 2.01 0 0 1 .702-.828c.3-.2.642-.3 1.026-.3.392 0 .738.106 1.038.318.3.212.534.506.702.882.168.376.252.812.252 1.308v.756a2.073 2.073 0 0 1-.744 1.026c-.352.26-.756.39-1.212.39-.392 0-.74-.1-1.044-.3a2.037 2.037 0 0 1-.714-.828Z" fill="#C0C2CE" data-color="1"></path>
        <path opacity=".801" d="M272.544 51.548a9.833 9.833 0 0 0 1.248-2.55 8.8 8.8 0 0 0 .408-2.646c0-.928-.132-1.802-.396-2.622-.264-.82-.68-1.654-1.248-2.502h.888a7.893 7.893 0 0 1 1.242 2.394c.276.868.414 1.778.414 2.73 0 .968-.14 1.894-.42 2.778a7.937 7.937 0 0 1-1.248 2.418h-.888Z" fill="#C0C2CE" data-color="1"></path>
        <path opacity=".801" d="M4.02 70.78v.768h-.912c-.912 0-1.368-.48-1.368-1.44V67.48c0-.488-.228-.732-.684-.732H.624v-.768h.432c.456 0 .684-.244.684-.732v-2.58c0-.96.456-1.44 1.368-1.44h.912v.768h-.672c-.456 0-.684.244-.684.732v2.328c0 .672-.22 1.108-.66 1.308.44.2.66.636.66 1.308v2.376c0 .488.224.732.672.732h.684Z" fill="#C0C2CE" data-color="1"></path>
        <path opacity=".801" d="M5.112 71.548a9.833 9.833 0 0 0 1.248-2.55 8.8 8.8 0 0 0 .408-2.646c0-.928-.132-1.802-.396-2.622-.264-.82-.68-1.654-1.248-2.502h.888a7.893 7.893 0 0 1 1.242 2.394c.276.868.414 1.778.414 2.73 0 .968-.14 1.894-.42 2.778A7.937 7.937 0 0 1 6 71.548h-.888Z" fill="#C0C2CE" data-color="1"></path>
    </g>
</svg>