<?xml version="1.0" standalone="no"?>
<!DOCTYPE svg PUBLIC "-//W3C//DTD SVG 20010904//EN"
 "http://www.w3.org/TR/2001/REC-SVG-20010904/DTD/svg10.dtd">
<svg version="1.0" xmlns="http://www.w3.org/2000/svg"
 width="300.000000pt" height="300.000000pt" viewBox="0 0 300.000000 300.000000"
 preserveAspectRatio="xMidYMid meet">
<metadata>
Created by potrace 1.10, written by Peter Selinger 2001-2011
</metadata>
<g transform="translate(0.000000,300.000000) scale(0.100000,-0.100000)"
fill="#000000" stroke="none">
<path d="M1343 2396 c-289 -55 -527 -234 -654 -491 -74 -150 -92 -230 -92
-405 0 -175 18 -255 92 -405 114 -231 332 -409 586 -477 114 -30 336 -30 450
0 254 68 472 246 586 477 74 150 92 230 92 405 0 175 -18 255 -92 405 -114
232 -336 412 -586 476 -103 26 -284 33 -382 15z m62 -38 c4 -3 -3 -9 -14 -13
-12 -3 -21 -11 -21 -16 0 -6 -5 -7 -12 -3 -6 4 -8 3 -4 -4 3 -6 1 -14 -6 -19
-18 -11 -39 -13 -33 -3 3 4 -2 10 -10 14 -24 9 -17 33 10 40 14 4 30 4 35 1 5
-3 11 -1 14 4 6 10 31 9 41 -1z m109 6 c12 -5 13 -9 3 -24 -10 -18 -13 -18
-29 -3 -26 24 -10 41 26 27z m166 -9 c8 -2 18 -4 23 -4 4 -1 7 -8 7 -17 0 -9
-5 -12 -12 -8 -7 4 -10 3 -5 -1 4 -5 37 -19 74 -32 36 -12 96 -39 132 -59 110
-61 255 -185 235 -202 -11 -10 -99 -37 -169 -52 -27 -6 -57 -13 -66 -15 -11
-4 -20 9 -33 52 -28 90 -83 197 -127 247 -23 25 -45 46 -50 46 -6 0 -8 -4 -5
-8 3 -5 -2 -9 -10 -9 -8 0 -13 6 -10 13 3 8 0 11 -9 8 -7 -3 -18 4 -25 15 -6
12 -18 21 -26 21 -8 0 -12 5 -8 11 6 10 19 9 84 -6z m-215 -225 l0 -200 -35 0
c-47 1 -232 19 -237 24 -7 7 47 139 82 201 19 33 47 74 62 92 31 34 99 83 117
83 8 0 11 -60 11 -200z m132 173 c51 -35 92 -83 131 -153 33 -58 86 -190 79
-196 -5 -5 -190 -23 -237 -24 l-35 0 0 200 c0 139 3 200 11 200 6 0 29 -12 51
-27z m-336 -39 c-44 -50 -99 -157 -127 -247 -13 -43 -22 -56 -33 -52 -9 2 -38
9 -66 15 -70 15 -158 42 -169 52 -12 10 29 54 109 117 73 58 136 95 224 132
99 41 111 38 62 -17z m-385 -314 c53 -19 116 -36 197 -54 22 -5 27 -11 22 -24
-11 -29 -35 -215 -35 -274 l0 -58 -199 0 -199 0 5 43 c10 90 45 206 89 295 25
50 49 92 53 92 4 0 34 -9 67 -20z m1368 -72 c44 -89 79 -205 89 -295 l5 -43
-199 0 -199 0 0 58 c0 59 -24 245 -35 274 -5 13 0 19 22 23 60 14 170 45 208
59 22 8 45 15 52 15 6 1 32 -41 57 -91z m-1084 21 c-23 -15 -26 -15 -37 -1
-18 23 -16 30 14 46 25 13 28 12 38 -8 9 -18 7 -23 -15 -37z m721 2 c-11 -20
-13 -20 -36 -5 -28 18 -27 17 -19 38 3 9 10 13 15 10 5 -3 9 0 9 6 0 6 9 2 21
-9 17 -16 19 -23 10 -40z m-358 12 c13 -15 13 -21 3 -35 -7 -10 -19 -18 -26
-18 -7 0 -19 8 -26 18 -10 14 -10 20 3 35 9 9 19 17 23 17 4 0 14 -8 23 -17z
m-161 -52 l99 -6 2 -158 2 -157 -167 0 -168 0 0 28 c0 47 19 207 31 261 l11
52 45 -7 c25 -4 90 -9 145 -13z m477 -33 c12 -59 31 -218 31 -260 l0 -28 -167
0 -168 0 2 157 2 158 108 7 c59 4 117 9 128 11 51 10 53 8 64 -45z m-744 -287
c-3 -5 4 -12 15 -16 19 -6 19 -8 5 -35 -15 -29 -45 -32 -45 -5 0 7 -5 15 -12
17 -8 3 -4 12 10 26 22 22 38 30 27 13z m845 -22 c13 -23 13 -32 0 -24 -5 3
-10 0 -10 -8 0 -29 -29 -27 -45 3 -14 27 -14 29 5 35 11 4 18 11 15 16 -3 5 1
6 10 3 8 -4 20 -15 25 -25z m-415 1 c4 -12 11 -17 18 -14 7 4 9 4 5 0 -3 -4
-9 -6 -12 -4 -3 2 -12 -6 -21 -17 -15 -20 -15 -20 -30 0 -9 11 -18 19 -21 17
-3 -2 -9 0 -12 4 -4 4 -2 4 5 0 7 -3 14 2 18 14 3 11 15 20 25 20 10 0 22 -9
25 -20z m-868 -24 c-4 -9 -11 -16 -17 -16 -11 0 -14 33 -3 44 11 10 26 -11 20
-28z m1713 3 c0 -20 -15 -26 -25 -9 -9 15 3 43 15 35 5 -3 10 -15 10 -26z
m-1310 -91 c0 -64 24 -250 35 -280 5 -13 0 -19 -22 -23 -91 -19 -160 -38 -206
-55 -29 -11 -55 -20 -59 -20 -3 0 -27 42 -52 93 -45 89 -78 203 -90 300 l-6
47 200 0 200 0 0 -62z m403 -100 l-2 -163 -112 -7 c-61 -3 -126 -9 -144 -12
l-33 -7 -11 53 c-14 65 -31 210 -31 261 l0 37 168 0 167 0 -2 -162z m407 125
c0 -51 -17 -196 -31 -261 l-11 -53 -33 7 c-18 3 -83 9 -144 12 l-112 7 -2 163
-2 162 168 0 167 0 0 -37z m464 -10 c-11 -93 -44 -207 -84 -287 -58 -119 -47
-112 -126 -83 -38 13 -104 32 -147 42 -64 14 -77 20 -72 33 11 30 35 216 35
280 l0 62 200 0 200 0 -6 -47z m-805 -302 c8 -14 6 -23 -9 -36 -19 -17 -21
-17 -40 0 -23 21 -11 55 20 55 11 0 24 -8 29 -19z m-372 -8 c-4 -3 0 -11 9
-17 21 -16 7 -46 -21 -46 -13 0 -27 5 -30 10 -10 16 4 48 23 53 9 3 19 5 21 6
2 0 1 -2 -2 -6z m731 -28 c10 -21 9 -23 -5 -18 -11 4 -14 3 -9 -5 5 -8 -1 -12
-17 -12 -30 0 -45 30 -23 46 9 6 13 14 10 17 -3 3 3 3 14 0 11 -2 24 -15 30
-28z m-423 -215 c0 -140 -3 -200 -11 -200 -18 0 -86 49 -117 83 -53 60 -159
278 -143 294 6 7 138 20 211 22 l60 1 0 -200z m249 190 c48 -5 90 -11 93 -13
7 -7 -46 -139 -82 -202 -19 -33 -47 -74 -62 -92 -31 -34 -99 -83 -117 -83 -8
0 -11 60 -11 200 l0 200 45 0 c25 0 85 -5 134 -10z m-580 -77 c44 -143 137
-287 180 -281 13 2 33 -9 54 -28 37 -36 40 -44 12 -44 -11 0 -20 4 -20 10 0 5
-8 9 -17 8 -43 -3 -55 2 -50 21 3 15 -4 21 -34 30 -118 35 -244 111 -350 208
l-62 58 32 13 c32 12 205 60 227 61 6 1 18 -25 28 -56z m856 33 c114 -29 150
-42 150 -55 0 -16 -112 -112 -188 -162 -63 -41 -213 -109 -241 -109 -5 0 -7
-8 -4 -19 3 -14 -2 -20 -22 -25 -14 -4 -30 -4 -35 -1 -6 4 -10 1 -10 -4 0 -6
-9 -11 -20 -11 -11 0 -20 3 -20 8 1 14 50 53 60 47 6 -3 7 0 4 10 -5 13 -2 15
18 10 21 -5 31 1 61 36 42 48 97 156 123 242 10 31 20 57 23 57 3 0 49 -11
101 -24z m-1150 -31 c-7 -8 -9 -23 -6 -32 4 -11 -1 -8 -14 7 -26 33 -25 40 6
40 22 0 24 -2 14 -15z m1360 5 c0 -3 -6 -12 -13 -21 -11 -15 -14 -14 -24 7
-10 22 -9 23 13 22 13 -1 24 -5 24 -8z m-680 -335 c10 -12 9 -16 -4 -21 -9 -3
-23 -3 -32 0 -13 5 -14 9 -4 21 7 8 16 15 20 15 4 0 13 -7 20 -15z"/>
</g>
</svg>
